<?xml version="1.0" encoding="utf-8"?>
<!-- Generator: Adobe Illustrator 25.2.3, SVG Export Plug-In . SVG Version: 6.00 Build 0)  -->
<svg version="1.1" id="Layer_1" xmlns="http://www.w3.org/2000/svg" xmlns:xlink="http://www.w3.org/1999/xlink" x="0px" y="0px"
	 viewBox="0 0 845.51 773.9" style="enable-background:new 0 0 845.51 773.9;" xml:space="preserve">
<g>
	<g>
		<path d="M266,112.66c0-23.23-0.07-44.76,0.02-66.29c0.09-21.55,16.76-41.4,37.85-44.85c5.95-0.98,12.06-1.42,18.1-1.43
			C390.66,0,459.35-0.06,528.04,0.11c21.59,0.05,38.66,8.51,47.61,29.17c2.35,5.41,3.74,11.62,3.91,17.51
			c0.51,18.82,0.24,37.66,0.27,56.5c0,2.71,0,5.41,0,8.88c4.07,0.18,7.3,0.45,10.53,0.45c65.09,0,130.18,0.03,195.27-0.07
			c34.09-0.05,59.87,25.35,59.87,59.34c0,55.12,0.12,110.24-0.31,165.35c-0.06,7.77-1.57,16.2-4.94,23.09
			c-3.61,7.38-4.47,14.48-4.46,22.27c0.06,111.07,0.03,222.13,0.02,333.2c0,31.44-26.56,58.08-58.04,58.08
			c-236.81,0.02-473.63,0.02-710.44,0c-32.43,0-57.96-26.16-58-59.68C9.19,614.5,9.2,514.79,9.15,415.08
			c0-6.09-0.2-12.19-0.04-18.28c0.36-14.64,0.51-29.04-6.58-42.75c-2.49-4.81-2.34-11.29-2.35-17.01C0.03,281.92,0.4,226.8,0,171.69
			c-0.25-33.75,26.71-59.59,59.89-59.28c65.08,0.6,130.18,0.22,195.27,0.25C258.39,112.66,261.63,112.66,266,112.66z M32.84,390.21
			c0,1.91,0,4.1,0,6.29c0.01,106.09,0.01,212.19,0.03,318.28c0,21.13,14.73,35.84,36.01,35.95c13,0.07,26,0,39.01,0
			c104.15-0.01,208.31-0.05,312.46-0.04c118.54,0.02,237.09,0.09,355.63,0.1c20.79,0,36.82-15.45,36.84-35.75
			c0.06-106.09,0.03-212.19,0-318.28c0-2.64-0.25-5.28-0.39-8.2c-6.08,1.07-11.17,2.51-16.33,2.79
			c-17.65,0.96-33.3,7.18-47.82,16.92c-10.33,6.94-20.72,13.8-31.28,20.38c-10.79,6.72-22.55,9.82-35.42,9.77
			c-54.02-0.21-108.03-0.09-162.05-0.07c-2.96,0-5.92,0.25-9.77,0.42c0,10.37,0.13,20-0.02,29.64
			c-0.39,25.35-19.74,44.45-44.96,44.48c-28.53,0.03-57.06,0.06-85.6,0.01c-22.27-0.04-40.57-15.75-43.29-37.78
			c-1.08-8.74-1.31-17.73-0.59-26.5c0.73-8.89-2.78-10.53-10.85-10.48c-53.18,0.33-106.37-0.01-159.55,0.33
			c-13.82,0.09-26.12-3.71-37.71-10.64c-5.7-3.4-11.52-6.7-16.81-10.66C87.62,400.12,62.63,389.52,32.84,390.21z M510.31,415.18
			c3.84,0,6.85,0,9.86,0c52.62,0,105.25-0.07,157.87,0.04c11.45,0.02,21.55-3.14,31.03-9.68c26.65-18.4,53.28-36.36,87.55-38.3
			c16.57-0.94,25.01-12.82,25.01-29.53c-0.02-55.11-0.07-110.23-0.17-165.34c-0.04-22.12-14.88-36.67-37.08-36.67
			c-241.24,0.01-482.48,0.01-723.71,0c-22.5,0-37.68,14.9-37.69,37.2c-0.03,54.01,0.02,108.02-0.03,162.03
			c-0.02,20.24,8.74,31.02,29.13,32.96c23.22,2.22,43.9,10.1,62.7,23.67c7.84,5.66,15.71,11.59,24.37,15.7
			c8.01,3.8,17.07,7.43,25.72,7.54c54.55,0.68,109.12,0.37,163.68,0.35c2.12,0,4.25-0.39,6.26-0.59c0.39-1.32,0.81-2.09,0.81-2.87
			c-0.03-23.32,19.98-44.07,47.86-43.16c26.56,0.87,53.17,0.14,79.76,0.2c3.57,0.01,7.23,0.14,10.68,0.94
			C497.35,375.12,508.32,390.99,510.31,415.18z M556.61,111.4c0-22.47,0.83-44.31-0.31-66.05c-0.68-13.02-12.03-21.24-25.43-21.25
			c-71.99-0.04-143.97-0.07-215.96-0.05c-15.37,0-26.21,10.6-26.3,25.85c-0.11,17.44,0.46,34.9-0.08,52.32
			c-0.25,8,2.19,10.31,10.18,10.28c82.5-0.33,165.01-0.3,247.51-0.41C549.46,112.1,552.71,111.67,556.61,111.4z M422.86,391.73
			c-13.83,0-27.66-0.12-41.49,0.03c-13.63,0.15-22.77,9.34-22.86,22.96c-0.12,17.11-0.07,34.22,0.01,51.34
			c0.07,15.09,8.47,23.64,23.61,23.7c27.11,0.12,54.22,0.1,81.32-0.05c13.46-0.08,23.18-9.46,23.42-22.83
			c0.3-17.14,0.3-34.3,0.02-51.45c-0.24-14.55-9.68-23.59-24.2-23.7C449.41,391.65,436.14,391.72,422.86,391.73z"/>
	</g>
</g>
</svg>
