<?xml version="1.0" encoding="utf-8"?>
<!-- Generator: Adobe Illustrator 25.2.3, SVG Export Plug-In . SVG Version: 6.00 Build 0)  -->
<svg version="1.1" id="Layer_1" xmlns="http://www.w3.org/2000/svg" xmlns:xlink="http://www.w3.org/1999/xlink" x="0px" y="0px"
	 viewBox="0 0 836.96 711.36" style="enable-background:new 0 0 836.96 711.36;" xml:space="preserve">
<g>
	<g>
		<path d="M403.18,128.02c0-8.95-0.03-17.39,0.01-25.84c0.08-18.76,0.21-37.52,0.3-56.28c0.03-5.58-0.1-11.17,0.05-16.75
			c0.45-16.2,13.3-28.94,29.51-29.12c5.21-0.06,10.52-0.12,15.61,0.79c13.96,2.47,24.16,14.91,24.19,29.1
			c0.06,30.49,0.01,60.99,0,91.48c0,1.93,0,3.86,0,4.85c17.13,3.81,33.58,6.76,49.64,11.17c37.68,10.37,71.1,29.03,101.3,53.71
			c33.37,27.28,58.55,60.94,77.31,99.48c12.41,25.5,21.01,52.35,25.08,80.46c1.7,11.73,2.74,23.59,3.25,35.43
			c0.51,11.84,0.66,23.78-0.21,35.58c-2.31,31.04-9.75,60.95-21.54,89.77c-16.85,41.22-41.96,76.72-75.01,106.39
			c-35.04,31.46-75.84,52.37-121.42,64.18c-29.4,7.62-59.29,10.13-89.44,8.41c-54.05-3.09-103.6-20.13-147.95-51.16
			c-58.44-40.88-97-96.05-115.8-164.89c-4.84-17.72-7.67-35.77-9.03-54.16c-1.79-24.24-0.67-48.26,3.57-72.11
			c8.73-49.07,28.12-93.35,59.46-132.4c22.49-28.03,49.14-51.13,79.85-69.57c31.31-18.81,65-31.3,101.18-36.86
			C396.25,129.21,399.41,128.65,403.18,128.02z M447.51,409.75c43.07,0,85.53,0,128.28,0c-0.71-42.24-6.04-83.27-16.78-123.59
			c-37.56,0-74.6,0-111.5,0C447.51,327.75,447.51,368.79,447.51,409.75z M303.28,410.02c42.95,0,85.09,0,127.34,0
			c0-41.43,0-82.47,0-124.26c-37.23,0.13-74.08-0.21-111.03,0.24C309.61,327.21,303.69,368.04,303.28,410.02z M302.65,286.26
			c-2.18-0.31-3.39-0.63-4.6-0.62c-31.91,0.13-63.82,0.33-95.72,0.39c-3.15,0.01-4.89,1.19-6.28,3.92
			c-7.95,15.58-14.85,31.6-19.84,48.38c-5.13,17.27-8.71,34.9-10.65,52.82c-0.69,6.38-0.89,12.81-1.34,19.69
			c2.41,0.15,4.16,0.35,5.9,0.35c36.06-0.07,72.12-0.14,108.18-0.28c2.79-0.01,5.58-0.48,8.66-0.76
			C287.59,368.02,293.3,327.04,302.65,286.26z M431.39,426.97c-2.01-0.18-3.25-0.38-4.49-0.38c-37.33,0.03-74.65,0.06-111.98,0.16
			c-3.89,0.01-7.77,0.49-11.74,0.75c0.9,39.7,5.55,78.21,15.28,115.81c10.35,1.41,107.96,1,112.92-0.43
			C431.39,504.45,431.39,465.96,431.39,426.97z M575.73,285.94c10.55,41.23,15.34,82.38,16.15,123.8c41.02,0,81.15,0,121.72,0
			c0-1.94,0.11-3.36-0.02-4.77c-0.86-9.5-1.25-19.07-2.75-28.46c-4.82-30.24-14.24-59.03-28.21-86.32
			c-1.71-3.34-3.64-4.65-7.46-4.63c-31.04,0.14-62.08,0.05-93.11,0.04C580.27,285.61,578.51,285.79,575.73,285.94z M575.48,427.02
			c-42.8,0-85.24,0-127.8,0c0,39.09,0,77.63,0,116.7c37.86,0,75.24,0,112.35,0C567.37,526.69,577.8,447.48,575.48,427.02z
			 M164.31,427.42c1.37,41.83,11.66,80.48,29.88,116.46c36.37,0,71.8,0,107.86,0c-9.52-38.59-13.86-77.25-15.14-116.46
			C245.89,427.42,205.53,427.42,164.31,427.42z M713.4,426.9c-40.53,0-80.8,0-121.5,0c-0.68,39.56-5.23,78.18-14.6,116.95
			c5.95,0,10.93,0,15.91,0c27.95-0.02,55.89-0.21,83.84,0.1c5.58,0.06,8.24-1.79,10.51-6.71c14.13-30.69,22.39-62.9,25.77-96.42
			C713.8,436.23,713.4,431.56,713.4,426.9z M323.48,560.76c0.84,3.05,1.36,5.69,2.29,8.19c4.6,12.31,8.9,24.75,14.08,36.81
			c9.42,21.97,21.33,42.52,37.65,60.2c10.01,10.84,21.45,19.75,35.43,25.03c5.91,2.23,11.95,3.58,18.43,3.24
			c0-44.66,0-89.06,0-133.46C395.18,560.76,359.54,560.76,323.48,560.76z M448.12,694.11c10.39,0.57,19.03-2.88,27.35-7.3
			c14.29-7.59,25.49-18.76,35.2-31.44c21-27.41,34.11-58.71,44.29-91.39c0.29-0.94,0.19-2,0.28-3.16c-35.91,0-71.47,0-107.13,0
			C448.12,605.4,448.12,649.49,448.12,694.11z M553.59,269.23c-0.25-1.46-0.3-2.36-0.56-3.19c-9.5-30.11-22.26-58.63-41.19-84.1
			c-9.1-12.25-19.71-22.94-32.84-31c-9.76-5.99-20.28-8.73-31.82-8.75c0,42.48,0,84.59,0,127.04
			C482.71,269.23,517.81,269.23,553.59,269.23z M430.64,142.4c-1.25-0.29-1.95-0.63-2.62-0.58c-12.86,0.94-24.51,5.05-35,12.71
			c-12.39,9.06-22.37,20.3-31.04,32.82c-16.06,23.17-26.85,48.83-35.53,75.48c-0.64,1.97-1.22,3.97-1.93,6.3
			c35.8,0,70.84,0,106.11,0C430.64,226.72,430.64,184.75,430.64,142.4z M204.62,560.72c-0.21,0.49-0.41,0.98-0.62,1.48
			c40.11,63.47,96.28,105.13,169.44,123.93c-35.08-35.08-53.01-79.17-67.01-125.41C272.28,560.72,238.45,560.72,204.62,560.72z
			 M506.69,685.6c39.91-9.56,75.72-27.31,107.26-53.3c24.32-20.04,44.79-43.55,61.18-71.59c-34.56,0-68.18,0-102.23,0
			C558.96,606.62,541.06,650.39,506.69,685.6z M508.1,151.47c32.04,33.57,49.53,74.75,62.87,117.65c33.19,0,65.57,0,99.22,0
			c-18.84-30.3-42.33-54.74-70.06-75.25C572.46,173.39,541.97,159.04,508.1,151.47z M208.14,269.25c33.94,0,66.49,0,99.35,0
			c13.05-42.58,29.78-83.2,60.61-116.62C300.72,171.87,247.75,210.32,208.14,269.25z M456.92,73.39c0-15.23,0.18-29.81-0.08-44.38
			c-0.12-6.59-5.57-11.72-12.19-12.25c-3.23-0.26-6.49-0.03-9.72-0.27c-10.87-0.8-16.14,7.95-16.07,15.53
			c0.12,12.07,0,24.15,0.05,36.22c0.01,1.7,0.4,3.39,0.63,5.16C432.18,73.39,444.19,73.39,456.92,73.39z M419.88,90.06
			c-1.59,5.81-1.32,32.14,0.21,35.87c12.06,0,24.06,0,36.48,0c0-11.72,0-23.66,0-35.87C444.07,90.06,431.93,90.06,419.88,90.06z"/>
		<path d="M50.96,261.48c4.1-0.04,6.71,2.6,7.29,7.04c0.97,7.48,2.13,14.93,3.09,22.4c0.76,5.88,3.81,9.68,9.69,10.71
			c7.42,1.3,14.88,2.52,22.36,3.39c5.52,0.65,7.99,2.58,8.05,7.34c0.05,4.36-2.81,6.81-8.14,7.52c-7.46,1-14.89,2.21-22.32,3.45
			c-5.49,0.92-8.45,4.49-9.32,9.8c-1.25,7.62-2.46,15.24-3.42,22.9c-0.61,4.85-2.58,7.3-6.81,7.43c-4.3,0.14-6.81-2.07-7.55-6.7
			c-1.28-7.98-2.66-15.96-3.78-23.96c-0.72-5.15-3.64-8.21-8.48-9.22c-6.85-1.43-13.77-2.5-20.67-3.68
			c-1.77-0.3-3.62-0.25-5.35-0.69c-3.76-0.96-5.94-4.05-5.55-7.53c0.4-3.67,2.88-6.19,6.71-6.63c6.25-0.71,12.51-1.34,18.76-2
			c0.72-0.08,1.43-0.17,2.14-0.27c7.7-1.1,12.3-5.24,13.3-13.19c0.93-7.31,2.09-14.6,3.18-21.89
			C44.74,263.68,47.15,261.52,50.96,261.48z"/>
		<path d="M773.08,226.55c-0.13,3.71-1.22,6.29-4.25,7.55c-15.34,6.43-24.3,18.5-29.83,33.61c-0.62,1.69-1.13,3.41-1.66,5.13
			c-1.41,4.62-3.28,6.17-7.53,6.19c-4.21,0.02-6.41-1.65-7.46-6.27c-2.89-12.75-9.45-23.28-19.34-31.65
			c-3.24-2.75-7.06-4.95-10.89-6.85c-3.35-1.66-4.95-3.98-4.96-7.57c0-3.4,1.55-5.61,4.69-7.16c16.18-8.01,25.83-21.27,30.42-38.49
			c0.87-3.25,2.04-6.17,5.91-6.87c4.86-0.88,7.79,0.92,9.03,6.02c2.98,12.26,9.23,22.66,18.48,31.07c3.65,3.32,8.19,5.78,12.57,8.18
			C771.53,221.22,773.08,223.59,773.08,226.55z M729.64,254c3.7-5.44,6.55-10.43,10.19-14.76c3.76-4.47,8.29-8.3,13.07-12.99
			c-10.17-6.39-16.65-16.2-23.16-27.47c-5.18,12.13-13.11,20.54-22.82,28.17C716.97,234.17,724.37,242.78,729.64,254z"/>
		<path d="M793.88,654.77c-4.25,0.09-6.58-1.58-7.6-6.12c-2.82-12.59-9.23-23.04-18.93-31.37c-3.36-2.89-7.31-5.23-11.28-7.25
			c-3.32-1.69-5-3.95-5.01-7.56c-0.01-3.4,1.52-5.64,4.66-7.2c16.21-8.03,25.88-21.3,30.47-38.56c1.35-5.09,3.36-6.9,7.6-6.96
			c4.2-0.06,6.2,1.54,7.35,6.28c2.95,12.09,9.11,22.36,18.19,30.72c3.51,3.23,7.83,5.7,12.07,7.99c3.54,1.91,5.77,4.23,5.54,8.38
			c-0.21,3.86-2.36,5.78-5.93,7.41c-12.95,5.9-21.23,16.37-26.74,29.18c-1.35,3.13-2.16,6.48-3.24,9.73
			C799.83,653.1,797.69,654.69,793.88,654.77z M793.82,630.2c6.3-11.42,12.89-20.92,23.69-27.74
			c-10.93-7.03-17.47-16.64-23.78-27.98c-5.23,12.19-13.4,20.57-22.95,28.4C781.12,609.89,788.12,618.65,793.82,630.2z"/>
	</g>
</g>
</svg>
