<?xml version="1.0" encoding="utf-8"?>
<!-- Generator: Adobe Illustrator 25.2.3, SVG Export Plug-In . SVG Version: 6.00 Build 0)  -->
<svg version="1.1" id="Layer_1" xmlns="http://www.w3.org/2000/svg" xmlns:xlink="http://www.w3.org/1999/xlink" x="0px" y="0px"
	 viewBox="0 0 198.76 85.72" style="enable-background:new 0 0 198.76 85.72;" xml:space="preserve">
<style type="text/css">
	.st0{fill:#012169;}
</style>
<g transform="matrix(1.25 0 0 -1.25 -326.25 413.97)">
	<path class="st0" d="M365.09,331.18c-0.21,0-0.43-0.05-0.64-0.16l-5.46-2.08c-0.59-0.21-1.01-0.39-1.28-0.52
		c-0.27-0.13-0.4-0.33-0.4-0.6c0-0.37,0.2-0.62,0.6-0.72c0.4-0.11,0.85-0.25,1.36-0.44c0.51-0.19,0.96-0.51,1.36-0.96
		c0.4-0.45,0.6-1.21,0.6-2.28v-40.18c0-0.85-0.09-1.49-0.28-1.92c-0.19-0.43-0.47-0.75-0.84-0.96c-0.37-0.21-0.8-0.37-1.28-0.48
		c-0.48-0.11-0.99-0.24-1.52-0.4c-0.43-0.11-0.77-0.23-1.04-0.36c-0.27-0.13-0.4-0.39-0.4-0.76c0-0.37,0.25-0.6,0.76-0.68
		c0.51-0.08,0.89-0.12,1.16-0.12c0.69,0,1.59,0.05,2.68,0.15c1.1,0.1,2.13,0.15,3.1,0.15c0.91,0,1.8-0.05,2.65-0.15
		c0.86-0.1,1.77-0.15,2.73-0.15c0.43,0,0.84,0.05,1.24,0.16c0.4,0.11,0.6,0.32,0.6,0.64c0,0.37-0.23,0.6-0.68,0.68
		c-0.45,0.08-1,0.23-1.64,0.44c-0.38,0.1-0.76,0.33-1.16,0.67c-0.4,0.35-0.6,0.97-0.6,1.88v11.33c0,0.27,0.19,0.4,0.56,0.4
		c0.16,0,0.4-0.16,0.72-0.48l12.08-11.41c0.59-0.59,0.88-1.01,0.88-1.28c0-0.27-0.15-0.51-0.44-0.72c-0.3-0.21-0.65-0.35-1.08-0.4
		c-0.69-0.11-1.25-0.23-1.68-0.36c-0.43-0.13-0.64-0.39-0.64-0.76c0-0.37,0.18-0.6,0.56-0.68c0.37-0.08,0.99-0.12,1.84-0.12
		c0.96,0,1.92,0.05,2.88,0.15c0.96,0.1,1.97,0.15,3.04,0.15c1.23,0,2.35-0.05,3.36-0.15c1.01-0.1,1.95-0.15,2.8-0.15
		c1.39,0,2.08,0.27,2.08,0.8c0,0.27-0.17,0.48-0.52,0.64c-0.35,0.16-0.81,0.36-1.4,0.6c-0.59,0.24-1.27,0.55-2.04,0.92
		c-0.77,0.38-1.56,0.93-2.36,1.68l-13.84,12.56c-0.11,0.11-0.24,0.25-0.4,0.44c-0.16,0.19-0.24,0.41-0.24,0.68
		c0,0.21,0.69,0.79,2.08,1.72c1.39,0.93,2.97,1.93,4.76,3c1.79,1.07,3.52,2.07,5.2,3c1.68,0.93,2.81,1.53,3.4,1.8
		c0.27,0.11,0.62,0.23,1.08,0.36c0.45,0.13,0.89,0.28,1.32,0.44c0.42,0.16,0.78,0.33,1.08,0.52c0.29,0.19,0.44,0.39,0.44,0.6
		c0,0.43-0.16,0.69-0.48,0.8c-0.32,0.11-0.67,0.16-1.04,0.16c-0.8,0-1.75-0.03-2.84-0.08c-1.09-0.05-2.15-0.08-3.16-0.08
		c-1.07,0-2.15,0.03-3.24,0.08c-1.09,0.05-2.07,0.08-2.92,0.08c-0.27,0-0.52-0.08-0.76-0.24c-0.24-0.16-0.36-0.35-0.36-0.56
		c0-0.32,0.16-0.57,0.48-0.76c0.32-0.19,0.67-0.37,1.04-0.56c0.37-0.19,0.72-0.43,1.04-0.72c0.32-0.29,0.48-0.71,0.48-1.24
		c0-0.27-0.31-0.65-0.92-1.16c-0.61-0.51-1.37-1.08-2.28-1.72c-0.9-0.64-1.91-1.31-3-2c-1.09-0.69-2.12-1.32-3.08-1.88
		s-1.8-1.01-2.52-1.36s-1.13-0.52-1.24-0.52c-0.48,0-0.72,0.43-0.72,1.28v32.92c0,0.59-0.09,0.97-0.28,1.16
		c-0.19,0.19-0.39,0.28-0.6,0.28L365.09,331.18L365.09,331.18z M284.22,327.32c-2.57,0-4.85-0.08-6.85-0.23
		c-2-0.15-3.99-0.23-5.97-0.23h-7.28c-0.27,0-0.57-0.01-0.92-0.04c-0.35-0.03-0.68-0.08-1-0.16c-0.32-0.08-0.6-0.22-0.84-0.4
		c-0.24-0.19-0.36-0.44-0.36-0.76c0-0.43,0.17-0.68,0.52-0.76c0.35-0.08,0.97-0.17,1.88-0.28c0.53-0.05,1.1-0.09,1.72-0.12
		c0.61-0.03,1.2-0.08,1.76-0.16c0.56-0.08,1.03-0.21,1.4-0.4c0.37-0.19,0.56-0.47,0.56-0.84v-37.64c0-1.17-0.11-2.08-0.32-2.72
		c-0.21-0.64-0.49-1.13-0.84-1.48c-0.35-0.35-0.73-0.59-1.16-0.72c-0.43-0.13-0.85-0.23-1.28-0.28c-1.23-0.21-2.03-0.48-2.4-0.8
		c-0.37-0.32-0.56-0.64-0.56-0.96c0-0.41,0.19-0.64,0.56-0.69s0.67-0.08,0.88-0.08c0.96,0,2.11,0.05,3.44,0.15
		c1.33,0.1,2.59,0.15,3.76,0.15h18.91c3.42,0,6.64,0.57,9.65,1.72c3.02,1.15,5.65,2.71,7.89,4.68c2.24,1.97,4.02,4.29,5.33,6.96
		c1.31,2.67,1.96,5.49,1.96,8.48c0,4.8-0.8,8.95-2.4,12.45c-1.6,3.49-3.78,6.36-6.53,8.6c-2.75,2.24-5.97,3.89-9.65,4.96
		C292.39,326.78,288.44,327.32,284.22,327.32L284.22,327.32z M282.45,324.93c1.66,0,3.43-0.2,5.3-0.6c1.87-0.4,3.72-1.03,5.54-1.88
		c1.82-0.85,3.57-1.92,5.26-3.2c1.68-1.28,3.17-2.8,4.46-4.56c1.29-1.76,2.3-3.76,3.05-6c0.75-2.24,1.12-4.72,1.12-7.44
		c0-2.72-0.38-5.14-1.12-7.24c-0.75-2.11-1.74-3.95-2.97-5.52c-1.23-1.57-2.62-2.92-4.18-4.04s-3.1-2.01-4.66-2.68
		c-1.55-0.67-3.05-1.16-4.5-1.48c-1.45-0.32-2.7-0.48-3.77-0.48c-1.29,0-2.54,0.16-3.77,0.48c-1.23,0.32-2.33,0.81-3.29,1.48
		c-0.96,0.67-1.74,1.51-2.33,2.52c-0.59,1.01-0.88,2.22-0.88,3.6v34.49c0,0.27,0.04,0.56,0.12,0.88c0.08,0.32,0.33,0.6,0.76,0.84
		c0.43,0.24,1.1,0.44,2.01,0.6C279.51,324.85,280.79,324.93,282.45,324.93L282.45,324.93z M407.7,309.57c-2.5,0-4.66-0.54-6.47-1.6
		c-1.81-1.07-3.32-2.42-4.52-4.05s-2.09-3.45-2.67-5.45c-0.59-2-0.88-3.94-0.88-5.81c0-5.02,1.2-8.99,3.62-11.9
		c2.41-2.91,5.83-4.37,10.26-4.37c2.08,0,3.85,0.31,5.32,0.92c1.47,0.61,2.68,1.31,3.64,2.09c0.96,0.78,1.65,1.5,2.08,2.17
		c0.43,0.67,0.64,1.08,0.64,1.24c0,0.43-0.24,0.64-0.72,0.64c-0.32,0-0.61-0.17-0.88-0.52c-0.27-0.35-0.64-0.72-1.12-1.12
		c-0.48-0.4-1.15-0.76-2-1.08c-0.86-0.32-2.05-0.48-3.6-0.48c-2.45,0-4.44,0.39-5.96,1.16c-1.52,0.77-2.69,1.78-3.52,3.01
		c-0.83,1.23-1.39,2.64-1.68,4.25c-0.29,1.6-0.44,3.26-0.44,4.97v1.68c0,0.48,0.05,0.86,0.15,1.12h19.47c0.69,0,1.13,0.12,1.32,0.36
		c0.18,0.24,0.28,0.73,0.28,1.48c0,0.85-0.21,1.92-0.64,3.2c-0.43,1.28-1.12,2.52-2.08,3.72c-0.96,1.2-2.22,2.23-3.8,3.08
		C411.92,309.15,409.99,309.57,407.7,309.57L407.7,309.57z M318.78,308.26c-0.59,0-1.07-0.03-1.44-0.08
		c-0.37-0.05-0.56-0.27-0.56-0.64c0-0.27,0.16-0.47,0.48-0.6c0.32-0.13,0.96-0.33,1.92-0.6c0.48-0.11,0.99-0.24,1.52-0.4
		c0.53-0.16,0.8-0.53,0.8-1.12c0-1.17-0.01-2.5-0.04-3.96s-0.04-2.98-0.04-4.52c0-1.5-0.01-2.99-0.04-4.48
		c-0.03-1.5-0.04-2.86-0.04-4.08c0-1.71,0.15-3.26,0.44-4.65s0.8-2.59,1.52-3.6c0.72-1.01,1.71-1.78,2.96-2.32
		c1.25-0.53,2.82-0.8,4.68-0.8c1.6,0,3.03,0.25,4.28,0.75s2.35,1.05,3.28,1.67c0.93,0.61,1.69,1.16,2.28,1.64
		c0.59,0.48,1.04,0.72,1.36,0.72c0.37,0,0.56-0.32,0.56-0.96v-1.84c0-0.37,0.03-0.68,0.08-0.92c0.05-0.24,0.23-0.36,0.54-0.36
		c0.38,0,1.37,0.16,2.99,0.47c1.62,0.32,3.84,0.69,6.66,1.11c0.59,0.11,1,0.21,1.24,0.32c0.24,0.1,0.36,0.32,0.36,0.63
		c0,0.42-0.31,0.66-0.92,0.71c-0.61,0.05-1.69,0.08-3.24,0.08c-0.37,0-0.81,0.1-1.32,0.32c-0.51,0.21-0.76,0.75-0.76,1.6
		c0,4.05,0.05,8.1,0.15,12.12c0.1,4.03,0.15,8.07,0.15,12.13c0,0.75-0.21,1.21-0.65,1.4c-0.43,0.19-0.78,0.28-1.04,0.28
		c-0.8,0-1.59-0.03-2.37-0.08c-0.78-0.05-1.57-0.08-2.37-0.08c-0.69,0-1.37,0.03-2.04,0.08c-0.67,0.05-1.35,0.08-2.04,0.08
		c-0.43,0-0.83-0.04-1.2-0.12c-0.37-0.08-0.56-0.25-0.56-0.52c0-0.32,0.31-0.59,0.92-0.8c0.61-0.21,1.08-0.37,1.4-0.48
		c0.96-0.27,1.71-0.47,2.24-0.6c0.53-0.13,0.95-0.25,1.24-0.36c0.29-0.11,0.48-0.24,0.56-0.4c0.08-0.16,0.12-0.35,0.12-0.56
		c0-2.88-0.03-5.73-0.08-8.56c-0.05-2.83-0.08-5.68-0.08-8.56c0-0.8-0.09-1.63-0.28-2.48c-0.18-0.85-0.6-1.61-1.24-2.28
		c-0.64-0.67-1.58-1.21-2.84-1.64c-1.25-0.43-2.99-0.64-5.23-0.64c-1.97,0-3.51,0.44-4.63,1.32c-1.12,0.88-1.68,2.15-1.68,3.8
		c0,3.57,0.03,7.13,0.08,10.68c0.05,3.55,0.08,7.11,0.08,10.68c0,0.58-0.07,0.98-0.2,1.2c-0.14,0.21-0.47,0.32-1.01,0.32
		c-0.59,0-1.18-0.03-1.77-0.08c-0.59-0.05-1.18-0.08-1.77-0.08c-0.59,0-1.17,0.03-1.73,0.08S319.36,308.26,318.78,308.26
		L318.78,308.26z M408.84,307.64c1.71,0,3.12-0.47,4.24-1.4c1.12-0.93,1.68-2.09,1.68-3.48c0-0.75-0.09-1.36-0.28-1.84
		c-0.19-0.48-0.57-0.88-1.16-1.2c-0.59-0.32-1.42-0.55-2.48-0.68c-1.07-0.13-2.48-0.2-4.24-0.2c-1.71,0-3.03,0.01-3.96,0.04
		s-1.63,0.07-2.08,0.12c-0.45,0.05-0.72,0.12-0.8,0.2c-0.08,0.08-0.12,0.2-0.12,0.36c0,0.64,0.21,1.41,0.64,2.32
		c0.43,0.91,1.02,1.79,1.8,2.64c0.77,0.85,1.73,1.58,2.88,2.2C406.1,307.34,407.4,307.64,408.84,307.64L408.84,307.64z
		 M367.83,271.59c-1.6,0-2.87-0.92-2.87-2.43c0-1.56,0.88-2.02,2.72-2.56c1.45-0.44,1.97-0.77,1.97-1.44c0-0.85-0.58-1.27-1.8-1.27
		c-0.82,0-1.68,0.4-2.27,1.03l-0.93-0.91c0.73-0.86,1.83-1.41,3.1-1.41c2.23,0,3.22,1.07,3.22,2.64c0,1.55-1.07,2.1-2.79,2.62
		c-1.5,0.45-1.9,0.75-1.9,1.36c0,0.58,0.44,1.08,1.46,1.08c0.86,0,1.48-0.27,2.03-0.83l0.92,0.93
		C369.91,271.15,369.01,271.59,367.83,271.59L367.83,271.59z M266.63,271.45v-5.05c0-2.4,1.12-3.79,3.27-3.79
		c2.17,0,3.35,1.33,3.35,3.77v5.08h-1.31v-5.1c0-1.59-0.65-2.44-2.01-2.44c-1.31,0-1.99,0.88-1.99,2.52v5.01L266.63,271.45
		L266.63,271.45z M301.81,271.45v-8.71h1.31v8.71H301.81z M381.69,271.45v-8.71h1.31v8.71H381.69z M409.66,271.45l3.12-5.26v-3.45
		h1.31v3.45l3.12,5.26h-1.5l-1.37-2.41c-0.31-0.56-0.75-1.4-0.9-1.72c-0.15,0.32-0.6,1.19-0.9,1.73l-1.36,2.4L409.66,271.45
		L409.66,271.45z M284.16,271.45v-8.71h1.27v4.52c0,0.48-0.01,1.69-0.01,2.02c0.14-0.22,0.44-0.75,0.65-1.07l3.47-5.46h1.25v8.71
		h-1.27v-4.49c0-0.49,0.01-1.73,0.01-2.05c-0.12,0.22-0.5,0.87-0.72,1.23l-3.31,5.31L284.16,271.45L284.16,271.45z M313.61,271.45
		l3.02-8.71h1.38l2.99,8.71h-1.39l-1.79-5.54c-0.16-0.51-0.41-1.29-0.49-1.61c-0.08,0.31-0.32,1.08-0.48,1.59l-1.82,5.55
		L313.61,271.45L313.61,271.45z M331.43,271.45v-8.71h5.8v1.27h-4.49v2.75h2.5v1.27h-2.5v2.15h4.3v1.27L331.43,271.45L331.43,271.45
		z M347.79,271.45v-8.71h1.28v3.45h1.97l1.73-3.45h1.51l-1.78,3.56c1.18,0.3,1.92,1.16,1.92,2.55c0,1.79-1.28,2.6-2.8,2.6H347.79z
		 M393.48,271.45v-1.28h2.54v-7.43h1.31v7.43h2.54v1.28H393.48L393.48,271.45z M349.07,270.22h2.54c0.88,0,1.48-0.5,1.48-1.41
		c0-0.95-0.61-1.39-1.48-1.39h-2.54V270.22z"/>
</g>
</svg>
