<?xml version="1.0" encoding="utf-8"?>
<!-- Generator: Adobe Illustrator 25.2.3, SVG Export Plug-In . SVG Version: 6.00 Build 0)  -->
<svg version="1.1" id="layer" xmlns="http://www.w3.org/2000/svg" xmlns:xlink="http://www.w3.org/1999/xlink" x="0px" y="0px"
	 viewBox="0 0 600 51.1" style="enable-background:new 0 0 600 51.1;" xml:space="preserve">
<style type="text/css">
	.st0{fill:#343433;}
</style>
<g id="lucky-brand">
	<g transform="translate(11.000000, 34.000000)">
		<path id="Shape" class="st0" d="M532.2,5.7v-32.1c0-4.2,0-6.7,1-7.6h-11.6c0.9,0.8,1,3,1,6.8v24L500.8-34h-10.6c1,0.8,1,3.3,1,7.6
			V5.7c0,4.2,0,6.7-1,7.6h11.6c-0.9-0.8-1-3-1-6.7v-24l21.8,30.8h10.6C532.2,12.4,532.2,9.9,532.2,5.7z M563.4-33.9h-15.6
			c1,0.8,1,3.3,1,7.6V5.8c0,4.2,0,6.7-1,7.6h15.6c14.1,0,25.6-10.6,25.6-23.6S577.5-33.9,563.4-33.9z M563.4,4.1h-5v-28.8h5
			c8.8,0,16,6.5,16,14.4S572.2,4.1,563.4,4.1z M481.4,13.3c-1.4-0.8-2.4-3.3-4.2-7.6l-13.6-32.1c-1.8-4.2-2.8-6.7-2.1-7.6H450
			c0.7,0.8-0.4,3.3-2.1,7.6L434.4,5.7c-1.8,4.2-2.8,6.7-4.2,7.6h12.6c-0.9-1,0-3.2,1.9-7.6l0.1-0.2h21.9l0.1,0.2
			c1.8,4.3,2.7,6.6,1.9,7.6H481.4L481.4,13.3z M448.7-3.9l7-16.6l7,16.6H448.7z M423.9,13.3c-1.6-0.8-3.1-3-6.1-7.3l-7-10
			c5.4-2.6,9.1-7.9,9.1-14.2c0-8.7-7.3-15.8-16.2-15.8h-21.1c1,0.8,1,3.3,1,7.6V5.7c0,4.2,0,6.7-1,7.6h11.6c-1-0.8-1-3.3-1-7.6v-8.1
			h7.1l8.6,12.2c1.1,1.7,1.5,2.8,1.1,3.5H423.9z M393.1-24.6h10.5c3.6,0,6.6,2.9,6.6,6.4c0,3.6-3,6.4-6.6,6.4h-10.5V-24.6z
			 M363.9-12.6c1.7-2.2,2.7-4.8,2.7-7.7c0-7.6-6.8-13.6-15.2-13.6h-20.1c1,0.8,1,3.3,1,7.6V5.8c0,4.2,0,6.7-1,7.6h22.1
			c9.1,0,16.5-6.5,16.5-14.7C369.8-6,367.5-9.8,363.9-12.6z M341.4-25h9.9c3.4,0,6,2.1,6,4.7s-2.6,4.7-6,4.7h-9.9V-25z M353.3,4.3
			h-11.9V-7.1h11.9c4.1,0,7.3,2.5,7.3,5.7C360.6,1.8,357.4,4.3,353.3,4.3z"/>
		<g id="group-clover" transform="translate(64.000000, 0.000000)">
			<path id="Shape_1_" class="st0" d="M243.2-5.6c-2.5-2.2-8.2-3.7-13.1-4.1c4.8-0.9,10.3-3,12.6-5.4c2.2-2.3,2-6.2-0.3-8.5
				c-1.6-1.6-2.6-1.6-4.1-3.1s-1.6-2.5-3.2-4.1c-2.3-2.3-6-2.2-8.1,0.3c-2.4,2.8-4.1,9.7-4.5,15c-0.4-5.3-2.2-12.2-4.5-15
				c-2.1-2.5-5.8-2.5-8.1-0.3c-1.6,1.6-1.7,2.6-3.2,4.1s-2.5,1.5-4.1,3.1c-2.3,2.3-2.5,6.1-0.3,8.5c2.3,2.4,7.8,4.5,12.6,5.4
				c-4.9,0.5-10.6,2-13.1,4.1c-2.4,2.1-2.6,6-0.5,8.5c1.4,1.7,2.5,1.9,3.8,3.5c1.4,1.6,1.4,2.7,2.8,4.4c2.1,2.5,5.8,2.8,8.1,0.6
				c1.8-1.8,3.5-5.5,4.7-9.3c-0.4,4.7,0.6,9.5,2.7,13.7l2.5-1.4c-2.3-4.4-3-9.6-2-14.6c1.1,4.6,3.1,9.5,5.3,11.6
				c2.3,2.3,6,1.9,8.1-0.6c1.4-1.7,1.5-2.8,2.8-4.4c1.4-1.6,2.4-1.8,3.8-3.5C245.8,0.3,245.6-3.5,243.2-5.6"/>
		</g>
		<g id="group-brand">
			<path id="Shape_2_" class="st0" d="M18.5,5.6H-0.4v-30.4c0-4.4,0-6.9,1-7.8H-11c1,0.9,1,3.4,1,7.8v40.9h28.5c4.4,0,7,0,7.8,1V4.6
				C25.4,5.6,22.9,5.6,18.5,5.6z M68.5-32.7c1,0.9,1,3.4,1,7.8v19.5c0,7-5.7,12.6-12.7,12.6S44.1,1.6,44.1-5.4v-19.5
				c0-4.4,0-6.9,1-7.8H33.4c1,0.9,1,3.4,1,7.8v19.5c0,12.3,10,22.3,22.3,22.3S79,6.9,79-5.4v-19.5c0-4.4,0-6.9,1-7.8H68.5z
				 M127.9,1.6c0.1,1.3-2.1,3.3-4.9,4.5c-2,0.8-4.2,1.2-6.5,1.2c-9.2,0-16.7-7-16.7-15.5s7.5-15.5,16.7-15.5c2.3,0,4.5,0.4,6.6,1.3
				c2.8,1.2,4.9,3.1,4.8,4.5l8.2-8.3c-1.6-0.3-4.8-2.6-5.8-3.3c-4.1-2.4-8.8-3.8-13.8-3.8C102-33.3,90.2-22,90.2-8.1
				s11.8,25.2,26.3,25.2c4.9,0,9.7-1.3,13.8-3.7c0.9-0.5,4.2-2.9,5.8-3.3L127.9,1.6z M189.6,8.2l-16.1-20.6l12.1-12.4
				c4.3-4.4,6.7-6.9,8.6-7.8h-16.1c0.4,1-3.6,5.3-5.9,7.7l-13.7,14.1v-16.3c0-3,0.2-4.8,1-5.6h-11.7c0.9,0.7,1,2.7,1,5.9V10
				c0,3.3-0.2,5.2-1,5.9h11.7c-0.8-0.7-1-2.5-1-5.6V2.8l8.1-8.4L181,12.8c1,1.4,1.3,2.3,0.8,3.1h14.8C195,15.1,193.1,12.6,189.6,8.2
				z M238.6-32.7c0.6,0.7-0.7,2.7-3,5.9l-9.8,13.3l-9.6-13c-2.5-3.4-3.8-5.4-3.2-6.1h-14.4c1.7,0.9,3.5,3.4,6.8,7.8L221-3.7v12
				c0,4.4,0,6.9-1,7.8h11.7c-1-0.9-1-3.4-1-7.8v-12l15.6-21.1c3.3-4.4,5.1-6.9,6.8-7.8h-14.5V-32.7z"/>
		</g>
	</g>
</g>
</svg>
