<?xml version="1.0" encoding="utf-8"?>
<!-- Generator: Adobe Illustrator 19.2.1, SVG Export Plug-In . SVG Version: 6.00 Build 0)  -->
<svg version="1.1" id="layer" xmlns="http://www.w3.org/2000/svg" xmlns:xlink="http://www.w3.org/1999/xlink" x="0px" y="0px"
	 viewBox="0 0 652 652" style="enable-background:new 0 0 652 652;" xml:space="preserve">
<style type="text/css">
	.st0{fill:#343433;}
</style>
<g id="lucky-brand">
	<g transform="translate(11.000000, 34.000000)">
		<path id="Shape" class="st0" d="M552.4,302.1V270c0-4.2,0-6.7,1-7.6h-11.6c0.9,0.8,1,3,1,6.8v24l-21.8-30.8h-10.6
			c1,0.8,1,3.3,1,7.6v32.1c0,4.2,0,6.7-1,7.6H522c-0.9-0.8-1-3-1-6.7v-24l21.8,30.8h10.6C552.4,308.8,552.4,306.3,552.4,302.1z
			 M583.6,262.5H568c1,0.8,1,3.3,1,7.6v32.1c0,4.2,0,6.7-1,7.6h15.6c14.1,0,25.6-10.6,25.6-23.6S597.7,262.5,583.6,262.5z
			 M583.6,300.5h-5v-28.8h5c8.8,0,16,6.5,16,14.4C599.6,294,592.4,300.5,583.6,300.5z M501.6,309.7c-1.4-0.8-2.4-3.3-4.2-7.6
			L483.8,270c-1.8-4.2-2.8-6.7-2.1-7.6h-11.5c0.7,0.8-0.4,3.3-2.1,7.6l-13.5,32.1c-1.8,4.2-2.8,6.7-4.2,7.6H463
			c-0.9-1,0-3.2,1.9-7.6l0.1-0.2h21.9l0.1,0.2c1.8,4.3,2.7,6.6,1.9,7.6L501.6,309.7L501.6,309.7z M468.9,292.5l7-16.6l7,16.6H468.9z
			 M444.1,309.7c-1.6-0.8-3.1-3-6.1-7.3l-7-10c5.4-2.6,9.1-7.9,9.1-14.2c0-8.7-7.3-15.8-16.2-15.8l-21.1,0c1,0.8,1,3.3,1,7.6v32.1
			c0,4.2,0,6.7-1,7.6h11.6c-1-0.8-1-3.3-1-7.6V294h7.1l8.6,12.2c1.1,1.7,1.5,2.8,1.1,3.5H444.1z M413.3,271.8h10.5
			c3.6,0,6.6,2.9,6.6,6.4c0,3.6-3,6.4-6.6,6.4h-10.5V271.8z M384.1,283.8c1.7-2.2,2.7-4.8,2.7-7.7c0-7.6-6.8-13.6-15.2-13.6h-20.1
			c1,0.8,1,3.3,1,7.6v32.1c0,4.2,0,6.7-1,7.6h22.1c9.1,0,16.5-6.5,16.5-14.7C390,290.4,387.7,286.6,384.1,283.8z M361.6,271.4h9.9
			c3.4,0,6,2.1,6,4.7s-2.6,4.7-6,4.7h-9.9V271.4z M373.5,300.7h-11.9v-11.4h11.9c4.1,0,7.3,2.5,7.3,5.7
			C380.8,298.2,377.6,300.7,373.5,300.7z"/>
		<g id="group-clover" transform="translate(64.000000, 0.000000)">
			<path id="Shape_1_" class="st0" d="M263.4,290.8c-2.5-2.2-8.2-3.7-13.1-4.1c4.8-0.9,10.3-3,12.6-5.4c2.2-2.3,2-6.2-0.3-8.5
				c-1.6-1.6-2.6-1.6-4.1-3.1s-1.6-2.5-3.2-4.1c-2.3-2.3-6-2.2-8.1,0.3c-2.4,2.8-4.1,9.7-4.5,15c-0.4-5.3-2.2-12.2-4.5-15
				c-2.1-2.5-5.8-2.5-8.1-0.3c-1.6,1.6-1.7,2.6-3.2,4.1c-1.5,1.5-2.5,1.5-4.1,3.1c-2.3,2.3-2.5,6.1-0.3,8.5
				c2.3,2.4,7.8,4.5,12.6,5.4c-4.9,0.5-10.6,2-13.1,4.1c-2.4,2.1-2.6,6-0.5,8.5c1.4,1.7,2.5,1.9,3.8,3.5c1.4,1.6,1.4,2.7,2.8,4.4
				c2.1,2.5,5.8,2.8,8.1,0.6c1.8-1.8,3.5-5.5,4.7-9.3c-0.4,4.7,0.6,9.5,2.7,13.7l2.5-1.4c-2.3-4.4-3-9.6-2-14.6
				c1.1,4.6,3.1,9.5,5.3,11.6c2.3,2.3,6,1.9,8.1-0.6c1.4-1.7,1.5-2.8,2.8-4.4c1.4-1.6,2.4-1.8,3.8-3.5
				C266,296.7,265.8,292.9,263.4,290.8"/>
		</g>
		<g id="group-brand">
			<path id="Shape_2_" class="st0" d="M38.7,302H19.8v-30.4c0-4.4,0-6.9,1-7.8H9.2c1,0.9,1,3.4,1,7.8v40.9h28.5c4.4,0,7,0,7.8,1V301
				C45.6,302,43.1,302,38.7,302z M88.7,263.7c1,0.9,1,3.4,1,7.8V291c0,7-5.7,12.6-12.7,12.6S64.3,298,64.3,291v-19.5
				c0-4.4,0-6.9,1-7.8H53.6c1,0.9,1,3.4,1,7.8V291c0,12.3,10,22.3,22.3,22.3s22.3-10,22.3-22.3v-19.5c0-4.4,0-6.9,1-7.8H88.7z
				 M148.1,298c0.1,1.3-2.1,3.3-4.9,4.5c-2,0.8-4.2,1.2-6.5,1.2c-9.2,0-16.7-7-16.7-15.5s7.5-15.5,16.7-15.5c2.3,0,4.5,0.4,6.6,1.3
				c2.8,1.2,4.9,3.1,4.8,4.5l8.2-8.3c-1.6-0.3-4.8-2.6-5.8-3.3c-4.1-2.4-8.8-3.8-13.8-3.8c-14.5,0-26.3,11.3-26.3,25.2
				s11.8,25.2,26.3,25.2c4.9,0,9.7-1.3,13.8-3.7c0.9-0.5,4.2-2.9,5.8-3.3L148.1,298z M209.8,304.6L193.7,284l12.1-12.4
				c4.3-4.4,6.7-6.9,8.6-7.8h-16.1c0.4,1-3.6,5.3-5.9,7.7l-13.7,14.1v-16.3c0-3,0.2-4.8,1-5.6H168c0.9,0.7,1,2.7,1,5.9v36.8
				c0,3.3-0.2,5.2-1,5.9h11.7c-0.8-0.7-1-2.5-1-5.6v-7.5l8.1-8.4l14.4,18.4c1,1.4,1.3,2.3,0.8,3.1h14.8
				C215.2,311.5,213.3,309,209.8,304.6z M258.8,263.7c0.6,0.7-0.7,2.7-3,5.9l-9.8,13.3l-9.6-13c-2.5-3.4-3.8-5.4-3.2-6.1h-14.4
				c1.7,0.9,3.5,3.4,6.8,7.8l15.6,21.1v12c0,4.4,0,6.9-1,7.8h11.7c-1-0.9-1-3.4-1-7.8v-12l15.6-21.1c3.3-4.4,5.1-6.9,6.8-7.8H258.8z
				"/>
		</g>
	</g>
</g>
</svg>
