<?xml version="1.0" encoding="utf-8"?>
<!-- Generator: Adobe Illustrator 25.2.3, SVG Export Plug-In . SVG Version: 6.00 Build 0)  -->
<svg version="1.1" id="Layer_1" xmlns="http://www.w3.org/2000/svg" xmlns:xlink="http://www.w3.org/1999/xlink" x="0px" y="0px"
	 viewBox="0 0 1769.37 291.77" style="enable-background:new 0 0 1769.37 291.77;" xml:space="preserve">
<style type="text/css">
	.st0{fill:#7B7B7B;}
</style>
<g>
	<g>
		<path d="M0,0.11c6.32-0.02,12.65-0.07,18.97-0.07c62.14,0,124.29,0.04,186.43-0.03c8.88-0.01,17.52,1.07,25.21,5.63
			c5.58,3.31,10.99,7.08,15.91,11.3c7.22,6.19,14,12.89,20.84,19.5c9.23,8.93,18.29,18.05,27.53,26.97
			c5.82,5.62,8.71,12.36,8.71,20.41c0,23.54,0,47.08,0.03,70.62c0.01,4.22-1.47,7.71-4.55,10.61
			c-15.05,14.17-30.08,28.36-45.1,42.56c-7.65,7.23-16.92,10.32-27.25,10.39c-17.02,0.11-34.04,0.06-51.06,0.06
			c-57.91,0.01-115.81,0.01-173.72,0.01c-0.65,0-1.3-0.02-1.96-0.04C0,145.4,0,72.76,0,0.11z M260.01,88.81
			c-0.27-0.31-0.43-0.52-0.61-0.7c-12.08-11.52-24.17-23.03-36.24-34.55c-9.62-9.19-21.18-13.51-34.37-13.52
			c-41.28-0.02-82.55,0.03-123.83,0.05c-4.56,0-9.13-0.03-13.69,0.04c-2.45,0.04-4.9,0.27-7.36,0.42c0,45.86,0,91.49,0,137.37
			c2.05,0.2,4.04,0.55,6.04,0.57c9,0.07,18,0.05,27,0.07c43.75,0.11,87.5,0.24,131.26,0.31c8.37,0.01,16.08-2.2,22.73-7.52
			c1.68-1.34,3.49-2.54,5.04-4.02c7.41-7.05,14.76-14.18,22.12-21.28c0.7-0.67,1.34-1.4,1.92-2.01
			C260.01,125.53,260.01,107.21,260.01,88.81z"/>
		<path d="M1769.37,44.32c-5.38,6.03-10.76,12.05-16.13,18.1c-10.77,12.14-21.54,24.29-32.3,36.44
			c-13.4,15.13-26.79,30.27-40.19,45.39c-21.53,24.3-43.07,48.6-64.6,72.9c-0.13,0.14-0.28,0.27-0.45,0.43c-17.55,0-35.12,0-53.03,0
			c2.79-3.35,5.35-6.52,8.02-9.61c24.66-28.48,49.33-56.96,74.03-85.42c21.62-24.92,43.27-49.81,64.9-74.71
			c0.38-0.44,0.74-0.9,1.22-1.48c-1.3-2.09-2.59-4.17-3.93-6.32c-55.73,0-111.4,0-167.23,0c0-13.32,0-26.52,0-39.87
			c76.32,0,152.64,0,229.04,0c0.23,1.33,0.45,2.59,0.66,3.85C1769.37,17.46,1769.37,30.89,1769.37,44.32z"/>
		<path d="M404.97,218.44c-1.73-0.25-3.46-0.46-5.18-0.74c-6.2-1.03-10.96-4.27-14.34-9.55c-0.4-0.62-0.74-1.42-0.74-2.14
			c-0.05-8.54-0.03-17.08-0.02-25.63c0-0.25,0.07-0.5,0.13-0.93c0.65-0.04,1.27-0.1,1.9-0.1c48.58,0.01,97.16,0.02,145.74,0.05
			c6.45,0,12.91,0.15,19.36,0.16c25.44,0.02,44.2-16.69,51.34-34.3c2.5-6.16,3.19-12.6,3.2-19.16c0.03-41.08,0.05-82.16,0.08-123.25
			c0-0.84,0-1.67,0-2.68c14.52,0,28.89,0,43.51,0c0,0.98,0,1.81,0,2.63c0,37.95,0,75.9,0,113.86c0,5.41,0.17,10.83,0.02,16.23
			c-0.48,17.06-6.01,32.35-16.18,46.05c-8.24,11.1-17.66,20.91-29.62,28.05c-9.7,5.79-20.19,9.37-31.41,10.56
			c-4.97,0.53-10.02,0.47-15.04,0.48c-43.04,0.07-86.08,0.09-129.12,0.13c-3.59,0-7.17,0.05-10.76,0.09
			c-0.51,0.01-1.03,0.13-1.54,0.2C412.54,218.44,408.76,218.44,404.97,218.44z"/>
		<path d="M908.27,103.96c5.55-4.27,10.95-8.36,16.29-12.54c36.19-28.32,72.37-56.66,108.56-85c1.03-0.8,2.06-1.6,3.09-2.39
			c3.46-2.67,7.28-4.13,11.74-4.03c5.93,0.14,11.87,0.05,17.8,0.05c0.58,0,1.15,0,1.97,0c0.36,72.56-0.81,144.95-0.53,217.43
			c-14.59,0-28.91,0-43.57,0c-0.38-49.92-0.31-99.76-0.3-150.01c-0.85,0.51-1.47,0.81-2,1.21c-6.34,4.67-12.75,9.27-19,14.07
			c-28.23,21.67-56.42,43.4-84.63,65.1c-3.25,2.5-6.54,4.95-9.95,7.54c-38.14-29.54-76.25-59.05-114.68-88.82
			c-0.13,2.94-0.31,5.51-0.34,8.09c-0.06,6.72-0.06,13.43-0.08,20.15c-0.09,40.23-0.18,80.47-0.26,120.7c0,0.64,0,1.28,0,2.04
			c-14.28,0-28.39,0-42.62,0c0-72.45,0-144.86,0-217.34c0.32-0.05,0.56-0.12,0.81-0.12c7.17,0.01,14.35-0.01,21.52,0.06
			c2.65,0.03,4.9,1.31,6.94,2.85c3.55,2.66,7.02,5.41,10.5,8.15c36.88,29.03,73.75,58.08,110.64,87.09
			C902.72,100.24,905.47,101.99,908.27,103.96z"/>
		<path d="M1453.91,179.53c0,12.98,0,25.62,0,38.42c-0.68,0.04-1.31,0.1-1.94,0.1c-70.89,0-141.77,0.01-212.66-0.02
			c-12.08-0.01-22.91-3.79-32.33-11.41c-13.75-11.12-26.13-23.57-36.86-37.66c-5.79-7.6-10.28-15.85-12.08-25.32
			c-0.65-3.43-0.99-6.97-1.02-10.47c-0.11-11.41,0-22.82-0.02-34.24c-0.01-3.58-0.04-7.18-0.3-10.75
			c-0.87-11.93,2.44-22.68,9.05-32.48c8.27-12.28,18.01-23.31,28.86-33.36c5.26-4.87,10.57-9.71,16.67-13.55
			c7.56-4.76,15.78-7.65,24.65-8.6c2.13-0.23,4.3-0.15,6.45-0.15c69.78-0.02,139.56-0.04,209.33-0.06c0.65,0,1.3,0,2.1,0
			c0,13.3,0,26.48,0,39.9c-0.74,0-1.45,0-2.15,0c-45.32,0.01-90.65,0.04-135.97,0.02c-18.85-0.01-37.69,0.06-56.54-0.27
			c-12.97-0.23-24.25,3.59-34.25,11.86c-8.79,7.27-16.28,15.56-21.73,25.62c-2.73,5.04-3.91,10.4-3.85,16.13
			c0.09,8.67,0.26,17.35-0.09,26c-0.48,11.91,2.9,22.48,10.02,31.91c6.41,8.5,13.65,16.11,23.14,21.26
			c7.14,3.88,14.77,6.3,22.84,6.77c8.32,0.49,16.67,0.45,25.01,0.44c40.23-0.05,80.47-0.19,120.7-0.25
			c16.89-0.02,33.78,0.08,50.67,0.12C1452.35,179.53,1453.05,179.53,1453.91,179.53z"/>
	</g>
</g>
<g>
	<path class="st0" d="M142.94,263.12H153c2.64,0,4.81,0.84,6.49,2.53c1.69,1.69,2.53,3.86,2.53,6.51c0,2.67-0.85,4.85-2.54,6.54
		c-1.69,1.69-3.87,2.54-6.52,2.54h-6.5v10.06h-3.52V263.12z M146.45,266.25v11.88h5.62c2,0,3.56-0.52,4.67-1.57
		c1.11-1.05,1.66-2.51,1.66-4.38s-0.55-3.33-1.65-4.37c-1.1-1.04-2.66-1.55-4.68-1.55H146.45z"/>
	<path class="st0" d="M185.36,280.15v11.15h-3.52v-28.18h10.57c2.72,0,4.9,0.76,6.53,2.29c1.63,1.53,2.45,3.56,2.45,6.1
		c0,1.97-0.5,3.67-1.5,5.1c-1,1.43-2.39,2.43-4.16,2.99l6.52,11.7h-4.12l-6.04-11.15H185.36z M185.36,266.25v10.8h6.74
		c1.81,0,3.21-0.47,4.19-1.41c0.98-0.94,1.47-2.27,1.47-4c0-1.69-0.51-3.01-1.54-3.96c-1.03-0.95-2.45-1.43-4.28-1.43H185.36z"/>
	<path class="st0" d="M239.07,288.14v3.16h-17.46v-28.18h17.46v3.16h-13.95v9.04h13.22v3.12h-13.22v9.69H239.07z"/>
	<path class="st0" d="M287.27,291.31h-3.28v-21.72h-0.14l-8.98,21.52h-2.97l-8.98-21.52h-0.14v21.72h-3.28v-28.18h4.08l9.73,23.52
		h0.16l9.73-23.52h4.08V291.31z"/>
	<path class="st0" d="M312.06,291.31h-3.52v-28.18h3.52V291.31z"/>
	<path class="st0" d="M336.84,263.12v18.07c0,2.17,0.68,3.94,2.04,5.3c1.36,1.36,3.24,2.04,5.63,2.04c2.4,0,4.27-0.68,5.63-2.04
		c1.36-1.36,2.04-3.13,2.04-5.3v-18.07h3.52v18.3c0,3.06-1.01,5.55-3.02,7.47s-4.74,2.88-8.17,2.88s-6.16-0.96-8.17-2.88
		s-3.02-4.41-3.02-7.47v-18.3H336.84z"/>
	<path class="st0" d="M404.75,291.31h-3.28v-21.72h-0.14l-8.98,21.52h-2.97l-8.98-21.52h-0.14v21.72h-3.28v-28.18h4.08l9.73,23.52
		h0.16l9.73-23.52h4.08V291.31z"/>
	<path class="st0" d="M467.48,288.14v3.16h-17.46v-28.18h17.46v3.16h-13.95v9.04h13.22v3.12h-13.22v9.69H467.48z"/>
	<path class="st0" d="M499.53,291.31h-3.48l-10.39-28.18h3.69l8.38,23.91h0.12l8.38-23.91h3.69L499.53,291.31z"/>
	<path class="st0" d="M546.41,288.14v3.16h-17.46v-28.18h17.46v3.16h-13.95v9.04h13.22v3.12h-13.22v9.69H546.41z"/>
	<path class="st0" d="M570.31,291.31h-3.48v-28.18h3.42l15.43,22.13h0.18v-22.13h3.48v28.18h-3.42l-15.43-22.05h-0.18V291.31z"/>
	<path class="st0" d="M621.25,291.31h-3.52v-25.02h-8.89v-3.16h21.29v3.16h-8.89V291.31z"/>
	<path class="st0" d="M648.3,283.55h3.54c0.17,1.52,0.91,2.75,2.24,3.67c1.32,0.92,2.99,1.39,5.01,1.39c1.9,0,3.47-0.45,4.72-1.36
		c1.24-0.91,1.87-2.05,1.87-3.43c0-1.18-0.43-2.16-1.3-2.93c-0.87-0.77-2.25-1.4-4.15-1.89l-3.61-0.94c-2.6-0.66-4.51-1.59-5.7-2.78
		c-1.2-1.19-1.8-2.74-1.8-4.66c0-2.34,0.93-4.26,2.78-5.74s4.25-2.23,7.18-2.23c2.8,0,5.12,0.75,6.95,2.26s2.79,3.43,2.87,5.79
		h-3.52c-0.16-1.51-0.81-2.7-1.95-3.57c-1.15-0.87-2.64-1.31-4.47-1.31c-1.82,0-3.31,0.43-4.46,1.29s-1.73,1.98-1.73,3.36
		c0,1.07,0.42,1.94,1.26,2.63s2.22,1.27,4.13,1.77l2.95,0.78c2.92,0.73,5.01,1.7,6.29,2.91c1.28,1.21,1.91,2.83,1.91,4.84
		c0,2.58-0.95,4.62-2.84,6.12s-4.46,2.26-7.71,2.26c-3,0-5.44-0.75-7.34-2.25C649.5,288.03,648.47,286.04,648.3,283.55z"/>
	<path class="st0" d="M748.31,284.58c-1.17,1.17-2.56,1.75-4.19,1.75c-1.63,0-3.02-0.58-4.19-1.75c-1.17-1.17-1.75-2.56-1.75-4.19
		s0.58-3.02,1.75-4.19c1.17-1.17,2.56-1.75,4.19-1.75c1.63,0,3.02,0.58,4.19,1.75c1.17,1.17,1.75,2.56,1.75,4.19
		S749.47,283.41,748.31,284.58z"/>
	<path class="st0" d="M799.82,263.12v18.07c0,2.17,0.68,3.94,2.04,5.3c1.36,1.36,3.24,2.04,5.63,2.04c2.4,0,4.27-0.68,5.63-2.04
		c1.36-1.36,2.04-3.13,2.04-5.3v-18.07h3.52v18.3c0,3.06-1.01,5.55-3.02,7.47s-4.74,2.88-8.17,2.88s-6.16-0.96-8.17-2.88
		s-3.02-4.41-3.02-7.47v-18.3H799.82z"/>
	<path class="st0" d="M843.43,291.31h-3.48v-28.18h3.42l15.43,22.13h0.18v-22.13h3.48v28.18h-3.42l-15.43-22.05h-0.18V291.31z"/>
	<path class="st0" d="M887.24,291.31h-3.52v-28.18h17.11v3.16h-13.59v9.69h12.48v3.12h-12.48V291.31z"/>
	<path class="st0" d="M923.04,266.58c2.33-2.62,5.5-3.93,9.49-3.93s7.16,1.31,9.49,3.93s3.5,6.17,3.5,10.64s-1.17,8.02-3.5,10.63
		s-5.5,3.92-9.49,3.92s-7.16-1.31-9.49-3.92s-3.5-6.16-3.5-10.63S920.71,269.2,923.04,266.58z M939.38,268.95
		c-1.69-2.04-3.97-3.06-6.85-3.06s-5.16,1.02-6.85,3.06s-2.53,4.79-2.53,8.27c0,3.46,0.84,6.21,2.53,8.25s3.97,3.06,6.85,3.06
		s5.16-1.02,6.85-3.06s2.53-4.79,2.53-8.25C941.91,273.75,941.06,270.99,939.38,268.95z"/>
	<path class="st0" d="M969.21,280.15v11.15h-3.52v-28.18h10.57c2.72,0,4.9,0.76,6.53,2.29s2.45,3.56,2.45,6.1
		c0,1.97-0.5,3.67-1.5,5.1s-2.39,2.43-4.16,2.99l6.52,11.7h-4.12l-6.04-11.15H969.21z M969.21,266.25v10.8h6.74
		c1.81,0,3.21-0.47,4.19-1.41s1.47-2.27,1.47-4c0-1.69-0.51-3.01-1.54-3.96s-2.45-1.43-4.28-1.43H969.21z"/>
	<path class="st0" d="M1029.23,279.65c0,3.82-1.05,6.79-3.15,8.93c-2.1,2.14-5.04,3.2-8.8,3.2c-3.93,0-7.07-1.33-9.4-3.99
		s-3.51-6.23-3.51-10.71c0-4.4,1.17-7.9,3.5-10.51s5.47-3.91,9.41-3.91c3.05,0,5.64,0.84,7.78,2.51c2.14,1.67,3.47,3.91,3.99,6.71
		h-3.69c-0.59-1.9-1.58-3.37-3-4.41s-3.11-1.56-5.09-1.56c-2.9,0-5.18,0.99-6.83,2.96s-2.47,4.7-2.47,8.19c0,3.54,0.83,6.34,2.5,8.4
		s3.93,3.09,6.8,3.09c2.5,0,4.53-0.74,6.09-2.22c1.56-1.48,2.34-3.4,2.34-5.75v-0.51h-7.95v-3.09h11.46V279.65z"/>
	<path class="st0" d="M1066.98,288.14v3.16h-17.46v-28.18h17.46v3.16h-13.95v9.04h13.22v3.12h-13.22v9.69H1066.98z"/>
	<path class="st0" d="M1098.05,291.31h-3.52v-25.02h-8.89v-3.16h21.29v3.16h-8.89V291.31z"/>
	<path class="st0" d="M1137.1,291.31h-3.52v-25.02h-8.89v-3.16h21.29v3.16h-8.89V291.31z"/>
	<path class="st0" d="M1179.91,291.31l-2.83-8.07h-11.21l-2.83,8.07h-3.69l10.39-28.18h3.48l10.39,28.18H1179.91z M1171.41,267.4
		l-4.51,12.85h9.14l-4.51-12.85H1171.41z"/>
	<path class="st0" d="M1213.27,291.31h-10.64v-28.18h10.68c2.41,0,4.36,0.64,5.85,1.93s2.24,2.99,2.24,5.1
		c0,1.47-0.47,2.8-1.42,3.99s-2.09,1.91-3.45,2.16v0.16c1.91,0.25,3.44,1,4.58,2.25s1.71,2.81,1.71,4.69c0,2.49-0.84,4.43-2.53,5.82
		S1216.26,291.31,1213.27,291.31z M1206.14,266.23v9.04h5.27c2.08,0,3.67-0.4,4.78-1.21s1.65-1.97,1.65-3.5
		c0-1.39-0.46-2.46-1.39-3.21s-2.24-1.12-3.95-1.12H1206.14z M1206.14,288.2h6.6c2.12,0,3.73-0.42,4.82-1.27s1.64-2.08,1.64-3.71
		c0-3.28-2.27-4.92-6.8-4.92h-6.27V288.2z"/>
	<path class="st0" d="M1259.71,288.14v3.16h-17.11v-28.18h3.52v25.02H1259.71z"/>
	<path class="st0" d="M1296.84,288.14v3.16h-17.46v-28.18h17.46v3.16h-13.95v9.04h13.22v3.12h-13.22v9.69H1296.84z"/>
	<path class="st0" d="M1369.05,291.31h-3.28v-21.72h-0.14l-8.98,21.52h-2.97l-8.98-21.52h-0.14v21.72h-3.28v-28.18h4.08l9.73,23.52
		h0.16l9.73-23.52h4.08V291.31z"/>
	<path class="st0" d="M1392.72,266.58c2.33-2.62,5.5-3.93,9.49-3.93s7.16,1.31,9.49,3.93s3.5,6.17,3.5,10.64s-1.17,8.02-3.5,10.63
		s-5.5,3.92-9.49,3.92s-7.16-1.31-9.49-3.92s-3.5-6.16-3.5-10.63S1390.39,269.2,1392.72,266.58z M1409.05,268.95
		c-1.69-2.04-3.97-3.06-6.85-3.06s-5.16,1.02-6.85,3.06s-2.53,4.79-2.53,8.27c0,3.46,0.84,6.21,2.53,8.25s3.97,3.06,6.85,3.06
		s5.16-1.02,6.85-3.06s2.53-4.79,2.53-8.25C1411.58,273.75,1410.74,270.99,1409.05,268.95z"/>
	<path class="st0" d="M1463.15,291.31h-3.28v-21.72h-0.14l-8.98,21.52h-2.97l-8.98-21.52h-0.14v21.72h-3.28v-28.18h4.08l9.73,23.52
		h0.16l9.73-23.52h4.08V291.31z"/>
	<path class="st0" d="M1501.88,288.14v3.16h-17.46v-28.18h17.46v3.16h-13.95v9.04h13.22v3.12h-13.22v9.69H1501.88z"/>
	<path class="st0" d="M1525.78,291.31h-3.48v-28.18h3.42l15.43,22.13h0.18v-22.13h3.48v28.18h-3.42l-15.43-22.05h-0.18V291.31z"/>
	<path class="st0" d="M1576.72,291.31h-3.52v-25.02h-8.89v-3.16h21.29v3.16h-8.89V291.31z"/>
	<path class="st0" d="M1603.77,283.55h3.54c0.17,1.52,0.92,2.75,2.24,3.67s2.99,1.39,5.01,1.39c1.9,0,3.47-0.45,4.72-1.36
		s1.87-2.05,1.87-3.43c0-1.18-0.43-2.16-1.3-2.93s-2.25-1.4-4.15-1.89l-3.61-0.94c-2.6-0.66-4.5-1.59-5.7-2.78s-1.8-2.74-1.8-4.66
		c0-2.34,0.93-4.26,2.78-5.74s4.25-2.23,7.18-2.23c2.8,0,5.12,0.75,6.95,2.26s2.79,3.43,2.87,5.79h-3.52
		c-0.16-1.51-0.81-2.7-1.95-3.57s-2.64-1.31-4.47-1.31c-1.82,0-3.31,0.43-4.46,1.29s-1.73,1.98-1.73,3.36
		c0,1.07,0.42,1.94,1.26,2.63s2.22,1.27,4.13,1.77l2.95,0.78c2.92,0.73,5.01,1.7,6.29,2.91s1.91,2.83,1.91,4.84
		c0,2.58-0.95,4.62-2.84,6.12s-4.46,2.26-7.71,2.26c-3,0-5.44-0.75-7.34-2.25S1603.94,286.04,1603.77,283.55z"/>
</g>
</svg>
