<?xml version="1.0" encoding="utf-8"?>
<!-- Generator: Adobe Illustrator 25.2.3, SVG Export Plug-In . SVG Version: 6.00 Build 0)  -->
<svg version="1.1" id="Layer_1" xmlns="http://www.w3.org/2000/svg" xmlns:xlink="http://www.w3.org/1999/xlink" x="0px" y="0px"
	 viewBox="0 0 599.93 61.52" style="enable-background:new 0 0 599.93 61.52;" xml:space="preserve">
<style type="text/css">
	.st0{fill-rule:evenodd;clip-rule:evenodd;fill:#231F20;}
</style>
<g id="g4324">
	<path id="path4330" class="st0" d="M69.06,1.6h7.9v58.33h-7.9V1.6z M228.76,10.29l8.7,25.74h-18.02l9.14-25.74H228.76L228.76,10.29
		z M224.77,1.6l-22.1,58.33h8.17l6.03-16.87h23.44l5.86,16.87h8.44L233.64,1.6H224.77L224.77,1.6z M157.12,1.6v24.14h30.45V1.6h7.72
		v58.33h-7.72V32.67h-30.45v27.26h-7.99V1.6H157.12z M101.47,12.87c-3.64,4.08-5.42,9.85-5.42,17.31c0,16.24,6.3,24.41,19.17,24.41
		c9.05,0,14.64-5.32,16.78-16.15h7.64c-1.42,9.32-5.6,15.98-12.43,19.79c-3.82,2.22-8.26,3.29-13.13,3.29
		c-7.29,0-13.32-2.4-18.02-7.1c-5.51-5.51-8.17-13.5-8.17-23.98c0-9.05,2.39-16.43,7.28-21.92C100.05,2.75,106.71,0,114.96,0
		c7.09,0,12.87,2.04,17.31,6.04c3.82,3.37,6.04,7.73,6.83,13.05h-7.72c-1.6-8.17-7.11-12.16-16.42-12.16
		C109.46,6.92,105.01,8.88,101.47,12.87 M48.2,10.92L31.78,59.93h-7.81L7.72,10.92H7.37l0.35,49.01H0V1.6h11.27l16.51,49.27h0.36
		L44.65,1.6h11.27v58.33H48.2l0.18-49.01C48.38,10.92,48.2,10.92,48.2,10.92z M576.58,6.92c-9.05,0-13.49,3.37-13.49,10.21
		c0,3.82,2.39,6.22,7.01,7.28l16.69,3.81c8.7,2.22,13.13,7.37,13.13,15.53c0,6.39-2.48,10.92-7.63,14.03
		c-4,2.57-9.06,3.73-15.1,3.73c-7.54,0-13.5-1.95-17.66-5.6c-4-3.55-5.86-8.44-5.86-14.82h7.37c0,4.88,1.78,8.43,5.15,10.83
		c2.84,1.87,6.39,2.75,10.83,2.75c10.21,0,15.27-3.19,15.27-9.85c0-3.02-0.89-5.24-2.58-6.57c-1.6-1.33-4.89-2.66-9.77-3.63
		l-11.98-2.84c-8.26-1.95-12.43-6.48-12.43-13.76c0-4.88,1.69-9.05,4.8-12.25c3.64-3.9,8.7-5.77,15.36-5.77
		c14.38,0,21.92,6.22,22.81,18.64h-7.46c-0.09-4-1.87-7.11-4.97-9.24C583.5,7.81,580.31,6.92,576.58,6.92 M506,8.26h19.53
		c7.1,0,10.65,3.28,10.65,9.76c0,6.83-4,10.21-11.8,10.21H506V8.26L506,8.26z M498.19,1.6v58.33H506V34.9h19.09
		c6.92,0,10.47,3.36,10.47,10.38c0,7.1,0.44,11.98,1.25,14.65h9.77v-1.33c-1.95-1.07-2.85-3.02-2.85-5.77l-0.61-10.57
		c-0.1-3.64-0.89-6.48-2.31-8.08c-0.8-1.07-2.39-2.13-4.61-3.02c5.32-3.1,7.99-7.8,7.99-13.85c0-10.56-6.39-15.7-19.08-15.7
		L498.19,1.6L498.19,1.6z M459.4,6.92c6.21,0,11.09,2.4,14.82,6.92c3.63,4.35,5.41,9.95,5.41,16.86c0,7.02-1.78,12.79-5.41,17.05
		c-3.74,4.62-8.61,6.83-14.82,6.83c-6.4,0-11.28-2.22-14.83-6.83c-3.64-4.26-5.41-10.03-5.41-17.05c0-6.92,1.78-12.51,5.41-16.86
		C448.3,9.32,453.19,6.92,459.4,6.92 M437.03,10.65c-4,5.6-6.04,12.25-6.04,20.06c0,7.91,2.05,14.57,6.04,20.16
		c5.05,7.1,12.43,10.65,22.38,10.65c9.94,0,17.3-3.55,22.19-10.65c4.17-5.6,6.21-12.25,6.21-20.16c0-7.81-2.03-14.47-6.21-20.06
		C476.71,3.55,469.34,0,459.4,0C449.45,0,442.08,3.55,437.03,10.65 M391.76,1.6v28.23L419.89,1.6h10.92L406.58,25.3l24.86,34.63
		H421.4l-20.58-29.3l-9.06,8.89v20.42h-7.99V1.6H391.76z M323.84,1.6v51.31h29.65v7.02h-37.28V1.6H323.84z M305.2,8.52h-34.63v17.93
		h31.88v6.92h-31.88v19.53h35.07v7.02h-42.88V1.6h42.43V8.52L305.2,8.52z"/>
</g>
</svg>
