<?xml version="1.0" encoding="utf-8"?>
<!-- Generator: Adobe Illustrator 25.2.3, SVG Export Plug-In . SVG Version: 6.00 Build 0)  -->
<svg version="1.1" id="Layer_1" xmlns="http://www.w3.org/2000/svg" xmlns:xlink="http://www.w3.org/1999/xlink" x="0px" y="0px"
	 viewBox="0 0 1535.64 1011.83" style="enable-background:new 0 0 1535.64 1011.83;" xml:space="preserve">
<style type="text/css">
	.st0{fill-rule:evenodd;clip-rule:evenodd;fill:#231F20;}
	.st1{fill:#231F20;}
</style>
<g id="g4324">
	<path id="path4330" class="st0" d="M176.78,858.45H197v149.29h-20.22V858.45z M585.56,880.7l22.28,65.9h-46.12l23.39-65.9H585.56
		L585.56,880.7z M575.34,858.45l-56.57,149.29h20.9l15.44-43.17h59.99l15,43.17h21.6l-53.64-149.29H575.34L575.34,858.45z
		 M402.19,858.45v61.8h77.94v-61.8h19.76v149.29h-19.76v-69.77h-77.94v69.77h-20.45V858.45H402.19z M259.72,887.3
		c-9.3,10.45-13.86,25.22-13.86,44.31c0,41.58,16.14,62.49,49.08,62.49c23.17,0,37.49-13.62,42.94-41.34h19.55
		c-3.64,23.85-14.32,40.9-31.82,50.65c-9.77,5.69-21.13,8.42-33.62,8.42c-18.65,0-34.1-6.14-46.13-18.17
		c-14.09-14.1-20.9-34.56-20.9-61.37c0-23.17,6.12-42.04,18.63-56.12c12.5-14.79,29.55-21.82,50.68-21.82
		c18.16,0,32.94,5.23,44.3,15.45c9.77,8.63,15.45,19.78,17.49,33.4H336.3c-4.09-20.9-18.19-31.12-42.03-31.12
		C280.18,872.07,268.8,877.07,259.72,887.3 M123.37,882.29l-42.03,125.45H61.34L19.77,882.29h-0.91l0.91,125.45H0V858.45h28.85
		l42.25,126.11h0.92l42.26-126.11h28.86v149.29h-19.77l0.47-125.45C123.84,882.29,123.37,882.29,123.37,882.29z M1475.87,872.07
		c-23.17,0-34.53,8.63-34.53,26.13c0,9.78,6.12,15.92,17.95,18.64l42.73,9.76c22.26,5.68,33.62,18.87,33.62,39.76
		c0,16.36-6.35,27.96-19.54,35.91c-10.23,6.58-23.18,9.55-38.64,9.55c-19.31,0-34.55-5-45.21-14.32c-10.24-9.08-15-21.6-15-37.94
		h18.86c0,12.49,4.55,21.58,13.18,27.71c7.27,4.79,16.37,7.05,27.72,7.05c26.14,0,39.1-8.18,39.1-25.22c0-7.73-2.28-13.4-6.59-16.82
		c-4.1-3.41-12.5-6.81-25-9.3l-30.67-7.28c-21.13-5-31.82-16.6-31.82-35.22c0-12.49,4.32-23.17,12.28-31.36
		c9.31-9.99,22.27-14.76,39.32-14.76c36.81,0,56.12,15.91,58.4,47.72h-19.1c-0.23-10.23-4.78-18.19-12.72-23.65
		C1493.59,874.36,1485.42,872.07,1475.87,872.07 M1295.22,875.49h49.99c18.17,0,27.27,8.39,27.27,24.98
		c0,17.49-10.23,26.13-30.22,26.13h-47.05V875.49L1295.22,875.49z M1275.22,858.45v149.29h19.99v-64.07h48.87
		c17.71,0,26.79,8.61,26.79,26.57c0,18.18,1.14,30.67,3.19,37.51h25v-3.42c-4.99-2.73-7.29-7.73-7.29-14.76l-1.57-27.05
		c-0.25-9.31-2.28-16.59-5.92-20.68c-2.04-2.74-6.12-5.46-11.81-7.73c13.62-7.94,20.44-19.98,20.44-35.45
		c0-27.04-16.35-40.2-48.84-40.2L1275.22,858.45L1275.22,858.45z M1175.94,872.07c15.91,0,28.38,6.14,37.94,17.72
		c9.3,11.13,13.85,25.46,13.85,43.16c0,17.98-4.55,32.74-13.85,43.65c-9.56,11.82-22.04,17.49-37.94,17.49
		c-16.37,0-28.87-5.68-37.96-17.49c-9.31-10.9-13.85-25.67-13.85-43.65c0-17.7,4.55-32.03,13.85-43.16
		C1147.53,878.22,1160.02,872.07,1175.94,872.07 M1118.67,881.61c-10.23,14.32-15.47,31.36-15.47,51.35
		c0,20.24,5.24,37.28,15.47,51.6c12.94,18.17,31.8,27.27,57.27,27.27c25.44,0,44.29-9.09,56.8-27.27
		c10.68-14.32,15.89-31.36,15.89-51.6c0-19.99-5.21-37.03-15.89-51.35c-12.51-18.16-31.36-27.25-56.8-27.25
		C1150.47,854.35,1131.6,863.45,1118.67,881.61 M1002.78,858.45v72.25l72.02-72.25h27.96l-62.03,60.65l63.63,88.64h-25.71
		l-52.69-75.01l-23.18,22.75v52.26h-20.46V858.45H1002.78z M828.94,858.45v131.33h75.9v17.97H809.4V858.45H828.94z M781.23,876.17
		H692.6v45.9h81.59v17.72H692.6v49.99h89.76v17.97H672.61V858.45h108.62V876.17L781.23,876.17z"/>
	<g id="g4332" transform="translate(317.4971,388.1279)">
		<path id="path4334" class="st1" d="M450.32,292.33c-111.09,0-208.42-59.9-261.5-149.06h60.33l1.28-154.65l67.03,154.65h65.71
			l67.14-154.65v154.65h72.03l2.58-105.68l23.19-19.33l101.82,125.01h61.86C658.72,232.43,561.41,292.33,450.32,292.33
			 M182.12-155.09v286.56c-22.91-42.74-35.95-91.5-35.95-143.28C146.17-63.59,159.21-112.38,182.12-155.09 M450.32-315.95
			c111.44,0,209.02,60.28,261.98,149.92h-73.96L526.21-61.64v-104.39h-95.36L352.25,25.99L277.5-166.04h-89.18
			C241.3-255.67,338.88-315.95,450.32-315.95 M754.45-11.82c0,48.3-11.37,93.98-31.48,134.6L604.83-29.43l116.98-119.23
			C742.63-107.49,754.45-61.03,754.45-11.82 M450.32-388.13c-207.84,0-376.33,168.5-376.33,376.31
			c0,207.83,168.49,376.33,376.33,376.33c207.81,0,376.31-168.5,376.31-376.33C826.63-219.63,658.13-388.13,450.32-388.13"/>
	</g>
</g>
</svg>
