<?xml version="1.0" encoding="utf-8"?>
<!-- Generator: Adobe Illustrator 25.2.3, SVG Export Plug-In . SVG Version: 6.00 Build 0)  -->
<svg version="1.1" id="Layer_1" xmlns="http://www.w3.org/2000/svg" xmlns:xlink="http://www.w3.org/1999/xlink" x="0px" y="0px"
	 viewBox="0 0 870.9 797.82" style="enable-background:new 0 0 870.9 797.82;" xml:space="preserve">
<g>
	<g>
		<path d="M372.13,134.2c-10.45-13.15-20.46-25.25-29.88-37.78c-7.73-10.28-15.25-20.79-21.99-31.73
			c-10.77-17.49-9.27-27.94,4.39-43.69c17.07-19.66,37.53-25.27,62.69-17.87c24.9,7.32,50.07,14.13,75.55,18.95
			c19.23,3.64,39.09,4.74,58.72,5.29c29.43,0.83,48.66,25.8,53.66,45.62c3.51,13.92-5.09,24.68-15.4,32.32
			c-26.91,19.95-54.53,38.94-81.89,58.28c-2.31,1.63-4.76,3.06-7.38,4.73c13.07,9.63,25.99,18.62,38.34,28.35
			c29.26,23.05,52.63,51.4,71.96,83.02c4.12,6.74,7.04,9.56,16.03,8.93c66.04-4.64,125.61,13.13,177.1,55.24
			c52.31,42.78,84.99,97.93,94.18,164.67c10.27,74.59-8.87,142.39-56.72,201.35c-35.99,44.35-82.64,72-138.17,82.54
			c-70.76,13.44-137.97,2.05-198.99-37.62c-14.8-9.62-27.69-22.14-41.82-32.83c-2.63-1.99-7.66-3.24-10.52-2.12
			c-43.83,17.06-88.95,21.99-135.67,17.47c-62.6-6.06-118.64-28.07-167.65-67.2C58.53,622.12,19.41,561.01,5.73,484.53
			c-13.75-76.92-3.59-149.85,39.43-215.91c47.23-72.53,114.11-117.98,199.09-135.44c29.2-6,59-6.21,88.72-2.91
			C345.44,131.64,357.92,132.78,372.13,134.2z M492.53,317.47c-14.61-20.54-31.34-38.64-51.8-53.05
			c-51.32-36.15-107.8-50.05-169.97-38.62c-54.05,9.94-97.63,37.54-131.08,80.44c-35.37,45.38-46.2,97.98-37.85,154
			c8.94,59.98,38.4,108.67,87.92,144.24c52.22,37.51,110.11,51.2,173.62,38.8c4.18-0.82,8.18-2.51,12.34-3.82
			C315.1,484.13,386.25,359.86,492.53,317.47z M494.31,655.98c15.24-14.51,30.65-27.25,43.78-42.02
			c55.75-62.69,69.94-137.24,58.16-217.8c-6.78-46.39-26-88.35-53.98-126c-19.17-25.8-41.27-49.16-68.74-65.97
			c-32.43-19.85-66.58-35.44-105.11-41.61c-37.83-6.06-75.12-9.62-113.11-2.99c-70.35,12.27-127.23,47.22-171.29,102.68
			c-52.66,66.28-66.81,142.29-49.87,223.78c18.04,86.77,68.66,150.82,146.36,192.23c59.06,31.48,122.73,40.58,188.87,29.17
			c13.62-2.35,26.89-6.76,40.78-10.33c-6.86-10.32-12.96-18.64-18.09-27.51c-3.32-5.73-7.24-5.9-12.67-4.26
			c-32.58,9.82-65.5,11.98-99.15,5.72c-76.37-14.23-135.19-54.12-175.31-120.46C74.33,499.99,64.4,444.49,74.8,386.55
			c10.44-58.2,40.08-105.58,87.81-141.32c58.04-43.45,122.88-59.18,193.87-45.94c64.86,12.1,116.81,45.97,155.02,99.86
			c37.42,52.77,55.5,111.73,47.87,176.28c-6.3,53.25-31.51,97.94-71.7,133.82c-5.48,4.89-11.04,9.68-16.95,14.85
			c4.81,7.3,9.06,14.1,13.69,20.62C486.79,648.08,489.86,650.97,494.31,655.98z M514.03,673.02c53.04,47.7,137.56,51.68,198.19,9.12
			c62.12-43.61,86.48-131.59,56.78-203.01c-29.54-71.06-98.61-102.29-147.81-102.06C641.34,496,612.31,596.96,514.03,673.02z
			 M506.07,339.9c-3.08,0.99-5.57,1.52-7.81,2.56c-39.17,18.15-70.22,45.66-91.6,83.06c-26.37,46.12-30.72,95.86-21.84,147.57
			c10.83,63.05,42.4,113.27,93.19,151.35c52.25,39.17,111.14,52.81,175.74,43.9c42.63-5.88,81.28-21.7,112.48-50.73
			c68.91-64.11,92.78-142.94,67.86-234.34c-20.03-73.45-67.91-123.78-136.93-154.01c-30.46-13.34-62.99-16.26-96.95-13.37
			c3.79,9.97,6.82,19.39,11.05,28.22c1.36,2.83,5.84,5.71,9.02,5.87c31.68,1.61,61.37,9.52,89.11,25.18
			c81.86,46.2,115.7,135.12,92.01,222.01c-21.82,80.03-90.54,137.31-173.52,140.3c-40.6,1.46-78.37-7.24-112.49-30.34
			c-43.57-29.49-72.64-69.85-89.02-119.24c-16.59-50.02-13.72-98.95,13.81-144.87c18.89-31.51,45.98-54.44,80.08-71.16
			C515.56,361.26,510.95,350.89,506.07,339.9z M527.84,395.79c-35.92,21.07-62.89,48.58-76.76,87.62
			c-14.08,39.63-9.17,77.87,8.19,116.65C523.11,545.04,547.51,478.57,527.84,395.79z M432.56,150.7
			c14.63-22.66,27.71-42.92,41.55-64.35c-22.37-3.8-42.87-7.28-64.68-10.99C417.16,100.55,424.41,124.17,432.56,150.7z
			 M454.06,143.59c0.56,0.64,1.13,1.27,1.69,1.91c28.38-15.13,54.8-33.2,79.35-55.13c-14.88-1.31-29.52-1.4-44.16-1.17
			c-1.54,0.02-3.57,1.62-4.48,3.05C475.56,109.3,464.83,126.46,454.06,143.59z M413.4,144.25c0.53-4.08,0.99-5.14,0.73-5.97
			c-6.62-21.05-13.23-42.11-20.15-63.06c-0.64-1.95-3.21-4.14-5.25-4.61c-12.29-2.82-24.69-5.17-39.16-8.1
			C371.25,90.28,391.63,116.37,413.4,144.25z M416.95,36.46c-7.66-1.9-13.89-3.31-20.04-5.01c-6.17-1.7-12.21-3.89-18.39-5.51
			c-16.71-4.35-24.65-1.02-34.11,14.77c18.18,4.59,36,9.22,53.91,13.42c1.88,0.44,4.95-1.03,6.41-2.6
			C408.81,47.14,412.35,42.22,416.95,36.46z M545.11,70.44c-6.26-17.87-30.39-25.62-60.31-20.21c2.39,5.7,4.43,11.42,7.23,16.74
			c0.9,1.7,3.8,3.28,5.81,3.32C513.31,70.56,528.78,70.44,545.11,70.44z M418.28,59.28c18.75,3.25,37.4,6.48,58.67,10.16
			c-5.63-10.15-3.14-21.72-16.47-23.15C445.04,44.63,427.59,34.25,418.28,59.28z"/>
	</g>
</g>
</svg>
