<?xml version="1.0" encoding="utf-8"?>
<!-- Generator: Adobe Illustrator 25.2.3, SVG Export Plug-In . SVG Version: 6.00 Build 0)  -->
<svg version="1.1" id="Layer_1" xmlns="http://www.w3.org/2000/svg" xmlns:xlink="http://www.w3.org/1999/xlink" x="0px" y="0px"
	 viewBox="0 0 2938.65 2000" style="enable-background:new 0 0 2938.65 2000;" xml:space="preserve">
<style type="text/css">
	.st0{fill:#A3A3A3;}
</style>
<g>
	<g>
		<path d="M2744.82,992.38c-2.59,4.53-5.29,9-7.76,13.59c-19.27,35.78-38.18,71.76-57.91,107.3c-7.58,13.65-16.17,26.92-25.76,39.23
			c-9.37,12.03-19.76,23.56-31.17,33.65c-31.31,27.65-84.62,30.75-112.94-19.69c-4.98-8.87-7.48-19.16-10.95-28.85
			c-1.23-3.43-1.53-7.24-3.01-10.54c-4.21-9.39-15.34-11-21.95-3.17c-3.43,4.06-6.4,8.53-9.35,12.97
			c-14.11,21.22-31.04,39.98-49.64,57.3c-3.89,3.62-8.05,7.01-12.33,10.17c-33.53,24.84-72.55,25.72-107.18,2.32
			c-28.68-19.38-48.96-44.86-56.94-79.18c-2.17-9.34-4.69-18.6-7.28-28.86c-5.49,3.21-6.86,8.43-9.07,12.95
			c-8.33,17.06-15.9,34.53-25.1,51.1c-6.26,11.27-13.83,22.12-22.42,31.74c-24.09,26.97-59.99,33.9-93.03,19.07
			c-31.86-14.3-46.96-40.72-50.6-73.77c-2.84-25.78-2.85-51.86-4.19-77.81c-1.08-20.95-2.62-41.89-3.29-62.86
			c-0.75-23.31-0.62-46.65-1.08-69.97c-0.54-27.31-1.24-54.62-1.98-81.92c-0.33-11.99-5.04-17-17.05-17.57
			c-21.63-1.02-43.28-1.66-64.91-2.56c-3.97-0.16-8-0.4-11.85-1.29c-7.54-1.73-11.8-7.21-14.21-14.17c-1.87-5.42,0.3-8.99,6.01-10.3
			c1.93-0.44,3.97-0.44,5.96-0.5c22.97-0.76,45.95-1.43,68.92-2.27c6.65-0.24,13.31-0.82,19.93-1.53c6.77-0.73,7.69-1.69,8.7-8.6
			c0.48-3.29,0.55-6.64,0.68-9.97c0.77-20.31,1.48-40.61,2.26-60.92c0.1-2.65,0.14-5.39,0.8-7.93c2.1-8.06,9.36-12.98,17.46-11.19
			c13.75,3.03,19.58,8.14,19.05,23.21c-0.79,22.64-0.53,45.31-0.47,67.97c0.02,7.94,1.43,9.38,9.43,9.38
			c13.66,0.01,27.36,0.07,40.97-0.89c26.24-1.86,52.42-4.54,78.66-6.56c4.53-0.35,9.38,0.25,13.75,1.53c7.01,2.06,9.81,8,7.57,14.99
			c-2.69,8.39-8.75,13.29-17.28,14.79c-5.89,1.03-11.9,1.72-17.87,1.98c-24.63,1.04-49.27,1.82-73.9,2.78
			c-9.98,0.39-19.97,0.84-29.93,1.6c-10.19,0.78-13.65,4.91-14.26,15.49c-1.75,30.3-1.31,60.57-0.01,90.89
			c1.93,44.93,2.89,89.9,4.9,134.83c1.04,23.26,2.49,46.6,5.63,69.65c1.68,12.31,6.68,24.35,11.43,36.01
			c4.41,10.81,13.26,18.35,23.46,23.75c9.7,5.14,19.92,4.77,29.94,0.43c13.55-5.87,23.79-15.82,32.68-27.23
			c10.33-13.24,17.65-28.21,24.27-43.55c20.06-46.55,37.95-93.92,53.77-142.07c8.76-26.64,18.44-52.9,33.31-76.87
			c14.48-23.33,30.7-45.33,52.64-62.26c26.19-20.2,55.48-26.87,87.58-17.37c29.58,8.76,46.7,33.74,39.9,68.48
			c-1.33,6.81-3.64,13.54-6.38,19.93c-8.07,18.81-18.86,36.02-32.33,51.43c-4.14,4.73-8.81,9.17-13.85,12.92
			c-24.65,18.34-50.24,35.25-79.09,46.38c-14.59,5.63-29.44,10.71-44.42,15.2c-8.17,2.45-12.12,6.71-12.98,15.27
			c-2.06,20.61-3.88,41.17-0.03,61.74c4.18,22.29,11.7,43.12,27.71,59.92c18.14,19.03,40.1,23.88,64.95,16.71
			c15.04-4.34,27.37-13.57,39.4-23.13c17.33-13.78,31.95-30.22,45.51-47.57c27.54-35.26,53.35-71.57,71.27-112.98
			c18.37-42.45,44.62-79.53,78.67-110.92c20.66-19.05,42.75-36.17,68.64-47.73c19.2-8.57,39.13-12.92,60.31-10.48
			c12.44,1.43,19.05-4.3,19.05-16.95c0.01-8.63-1.45-17.25-1.71-25.89c-0.82-26.62-2.13-53.26-1.89-79.88
			c0.4-43.98,8.33-86.81,22.89-128.33c6.42-18.31,14.91-35.62,26.36-51.43c10.19-14.07,22.56-25.36,38.97-31.7
			c13.18-5.09,26.01-4.33,38.62,2.21c12.49,6.47,19.31,16.83,18.75,30.58c-0.59,14.59-2.41,29.2-4.76,43.62
			c-8.32,50.97-25.57,99.25-44.96,146.89c-11.44,28.1-23.19,56.02-37.37,82.9c-9.46,17.93-13.26,37.66-16.28,57.46
			c-4.54,29.69-6.2,59.63-6.5,89.64c-0.56,56.31-1.39,112.61-1.59,168.92c-0.08,23.3,1.2,46.61,1.79,69.92
			c0.08,3.32,0.03,6.69-0.45,9.97c-1.32,8.94-4.7,12.1-12.8,12.43c-8.44,0.35-15.48-3.75-16.61-11.24
			c-1.33-8.83-2.22-17.95-1.56-26.82c4.33-58.52,6.42-117.09,4.84-175.77c-0.18-6.5-1.21-12.99-1.84-19.48
			C2747.01,992.82,2745.92,992.6,2744.82,992.38z M2530.09,1119.89c-0.62,11.72,1.35,24.76,6.49,37.32
			c10.92,26.67,31.48,33.31,56.21,18.16c14.45-8.86,26.08-20.67,35.78-34.37c27.14-38.34,53.42-77.2,72.85-120.25
			c11.78-26.1,24.11-51.91,32.09-79.56c5.96-20.65,8.91-41.63,8.97-63.05c0.03-9.84-3.63-13.55-13.31-12.86
			c-5.24,0.37-10.74,1.35-15.48,3.48c-13.34,5.99-27.21,11.39-39.33,19.36c-60.39,39.71-105.48,92.14-130.09,160.92
			C2536.27,1071.38,2529.69,1094.04,2530.09,1119.89z M2767.04,830.1c0.7,0.15,1.4,0.3,2.1,0.45c0.83-0.97,1.87-1.83,2.45-2.94
			c9.53-18.32,20.13-36.18,28.21-55.12c13.08-30.61,24.79-61.82,36.53-92.98c12.95-34.35,23.24-69.5,28.64-105.91
			c1.07-7.19,1.51-14.66,0.85-21.88c-1.38-15.19-14.66-22.36-28.25-15.67c-3.55,1.75-6.96,4.02-9.94,6.61
			c-10.96,9.51-19.54,20.88-25.65,34.08c-2.66,5.74-5.44,11.43-7.97,17.23c-17.17,39.44-28.95,80.23-29.41,123.59
			c-0.28,26.98,0.05,53.97,0.46,80.95C2765.23,809.06,2766.36,819.58,2767.04,830.1z M2438.26,877.61
			c0.14-17.14-6.37-26.75-19.44-31.28c-7.62-2.64-15.43-3.71-23.57-2.11c-25.28,4.98-43.98,20.14-59.43,39.48
			c-18.13,22.71-33.61,47.21-43.54,74.75c-5.52,15.32-11.22,30.69-15.13,46.46c-4.1,16.54,1.25,20.95,16.87,14.68
			c25.03-10.05,49.47-21.37,71.46-37.39c27.11-19.76,49.14-43.77,63.49-74.34C2433.95,897.27,2437.93,886.34,2438.26,877.61z"/>
		<path d="M1701.09,964.21c3.29-4.57,5.8-7.9,8.14-11.34c11.44-16.79,22.32-33.97,36.74-48.53c20.06-20.26,42.53-37.42,67.18-51.58
			c8.29-4.76,17.44-8.51,26.66-11.04c23.57-6.47,45.53-2.16,65.36,12.27c11.8,8.59,18.72,20.66,23.45,34.05
			c8.81,24.95,7.84,50.42,3.21,75.98c-3.6,19.88-11.58,38.22-20.06,56.34c-12.31,26.29-25.85,51.85-43.85,74.87
			c-23.93,30.59-53.87,53.44-89.17,69.03c-15.48,6.84-31.72,12.2-48.01,16.87c-13.39,3.84-21.71,11.75-24.3,24.94
			c-1.97,10.06-3.6,20.52-3.1,30.69c2.47,49.89,5.83,99.74,8.62,149.62c1.88,33.59,3.26,67.21,5.04,100.8
			c0.6,11.3,1.74,22.58,2.61,33.87c0.2,2.65,0.54,5.33,0.34,7.97c-0.51,6.88-2.99,9.37-9.86,10.27c-1.65,0.22-3.32,0.2-4.99,0.23
			c-14.97,0.26-18.1-2.3-19.27-17.44c-1.27-16.26-2.11-32.57-2.87-48.86c-1.14-24.29-1.81-48.6-3.11-72.88
			c-2.2-40.9-4.81-81.77-7.1-122.67c-1.32-23.61-2.36-47.24-3.47-70.86c-2.2-46.57-4.58-93.13-6.46-139.71
			c-1.32-32.62-1.43-65.28-2.99-97.88c-1.79-37.24-2.59-74.58-8.21-111.55c-1.4-9.24,0.69-12.11,10.16-13.16
			c5.54-0.62,11.37-0.7,16.82,0.31c8.63,1.6,11.54,5.65,12.09,14.58c0.65,10.64,0.85,21.31,1.8,31.91
			c2.01,22.55,4.36,45.08,6.64,67.6C1699.26,960.12,1699.98,961.26,1701.09,964.21z M1702.21,1088.34
			c1.17,15.91,2.81,39.15,4.64,62.38c0.29,3.62,1.12,7.28,2.29,10.72c2.15,6.31,5.24,7.81,11.49,5.56c3.74-1.34,7.4-3.09,10.8-5.14
			c25.77-15.53,49.51-33.74,71.34-54.45c26.34-24.98,48.08-53.51,64.77-85.7c15.11-29.15,26.57-59.69,30.06-92.61
			c2.16-20.33-0.85-40-12.08-57.56c-7.59-11.87-19.13-16.08-32.86-13.15c-12.3,2.62-23.04,8.55-33.27,15.56
			c-22.67,15.52-42.67,34.07-60.96,54.47c-18.15,20.24-33.23,42.5-42.89,68.09C1705.26,1023.72,1702.74,1052.17,1702.21,1088.34z"/>
		<path d="M999.58,975.1c-2.29,3.18-4.62,6.35-6.88,9.56c-31.11,44.12-62.14,88.3-97.55,129.17c-8.62,9.95-12.27,20.92-8.67,34.21
			c3.14,11.56,5.32,23.39,7.68,35.15c2.98,14.8,4.19,29.72,1.09,44.66c-5.58,26.94-22.31,43.95-49.37,48.29
			c-10.35,1.66-21.39,1.51-31.78-0.06c-23.06-3.49-34.77-20.83-31.32-44.05c2.05-13.82,8.1-26.01,15.33-37.7
			c9.52-15.39,21.15-29.2,34.05-41.73c8.06-7.83,10.37-15.83,6.08-25.93c-6.76-15.92-12.61-32.33-20.63-47.6
			c-13.78-26.24-29.34-51.54-43.38-77.65c-12.32-22.91-23.56-46.42-26.9-72.71c-0.71-5.6-1.28-11.3-1.06-16.92
			c0.92-23.22,11-41.03,32.38-51.16c25.96-12.29,52.79-13.71,79.58-3.22c17.41,6.82,29.04,19.81,33.92,38.14
			c4.5,16.92,4.99,34.26,4.21,51.61c-0.42,9.27-6.54,13.07-15,10.47c-4.4-1.35-6.79-4.17-6.89-8.68c-0.11-4.99,0.03-10,0.18-14.99
			c0.37-12.11-0.93-23.95-5.33-35.34c-9.6-24.83-37.21-38.61-61.83-30.85c-18.86,5.94-31.16,21.33-32.81,41.13
			c-0.87,10.45,0.91,20.59,3.75,30.59c5.51,19.34,13.46,37.59,23.97,54.77c22.24,36.39,44.29,72.91,66.44,109.35
			c1.18,1.95,2.61,3.75,4.57,6.55c2.58-2.1,4.83-3.81,6.94-5.67c26.67-23.57,47.47-52.2,68.94-80.22
			c30.23-39.45,58.06-80.53,83.04-123.53c12.57-21.63,30.57-36.79,54.81-43.87c18.66-5.45,36.8-4.73,54.1,5.29
			c6.79,3.93,13.01,8.62,16.84,15.28c6.29,10.92,12.1,22.18,17.14,33.73c3.51,8.05,1.36,12.52-4.91,14.67
			c-7.46,2.56-12.92,0.05-15.85-7.51c-1.2-3.1-1.61-6.55-3.06-9.5c-3.79-7.74-7.02-16.01-12.17-22.77
			c-11.46-15.02-31.15-17.23-46.23-5.9c-9.7,7.29-17.19,16.66-23.5,26.98c-18.42,30.12-28.77,62.73-31.47,98.01
			c-3.03,39.59,1.24,78.54,9.36,117.13c6.25,29.68,21.75,54.09,44.68,73.92c34.02,29.42,71.53,10.1,84.53-23.43
			c2.52-6.49,3.86-13.43,5.95-20.11c2.21-7.08,6.24-9.81,12.41-8.79c4.78,0.79,7.06,3.16,7.37,7.97c0.11,1.64-0.06,3.35-0.41,4.96
			c-5.41,24.3-15.59,46.02-34.6,62.82c-14.65,12.95-32.17,15.33-50.65,12.71c-34.61-4.92-61.29-22.71-81.52-50.91
			c-16.91-23.58-25.57-50.31-30.85-78.41c-5.37-28.61-7.31-57.5-6-86.55c0.52-11.63,1.96-23.22,2.98-34.82
			c0.17-1.93,0.3-3.86,0.44-5.78C1001.01,975.57,1000.3,975.34,999.58,975.1z M846.22,1163.36c-8.35,7.24-16.34,13.31-23.29,20.4
			c-10.97,11.18-17.62,24.98-20.93,40.23c-1.04,4.79-1.23,9.95-0.75,14.84c0.73,7.47,5.04,12.92,11.86,16.14
			c10.92,5.17,25.4,2.25,32.48-7.58c3.77-5.24,6.55-11.61,8.18-17.89c4.59-17.62,1.37-35.03-3.17-52.22
			C849.29,1172.25,847.49,1167.35,846.22,1163.36z"/>
		<path d="M314.36,1090.52c-2.4,7.22-4.75,14.45-7.19,21.65c-12.24,36-31.13,67.83-60,92.99c-31.62,27.55-68.09,40.38-110.04,32.14
			c-29.26-5.75-49.36-23.41-57.28-52.36c-4.72-17.25-7.82-35.19-9.4-53.01c-3.7-41.82-4.12-83.82-3.8-125.8
			c0.31-41.64,0.8-83.28,1.23-124.91c0.03-3,0.17-6,0.33-8.99c0.23-4.2,2.43-6.77,6.55-7.67c0.33-0.07,0.65-0.14,0.97-0.23
			c21.74-5.79,29.3,0.37,28.41,22.61c-0.75,18.63-1.2,37.28-1.51,55.93c-0.79,46.63-1.71,93.26-2.01,139.9
			c-0.18,27.74,3.27,55.19,10.01,82.14c2.83,11.34,6.46,22.4,12.94,32.33c6.11,9.35,14.39,15.61,25.27,18.26
			c34.8,8.5,63.79-2.28,87.93-27.41c20.58-21.42,31.86-48.12,41.19-75.79c14.41-42.69,20.55-86.77,22.46-131.58
			c1.43-33.61,2.72-67.23,4.19-100.84c0.74-16.99,14.44-24.42,29.52-16.14c5.63,3.09,7.47,8.29,7.56,14.26
			c0.42,26.63,0.03,53.3,1.3,79.89c1.61,33.92,4.33,67.79,6.94,101.66c1.64,21.25,3.37,42.51,6.12,63.64
			c3.18,24.44,7.55,48.72,11.32,73.08c0.92,5.92,1.79,11.88,2.2,17.85c0.5,7.19-1.93,10.44-8.62,12.71
			c-0.63,0.21-1.29,0.35-1.93,0.52c-15.46,4.17-20.54,0.61-23.05-15.31c-6.03-38.16-12.28-76.29-18.47-114.43
			c-0.37-2.28-0.95-4.53-1.43-6.8C315.51,1090.72,314.94,1090.62,314.36,1090.52z"/>
		<path d="M454.79,1033.34c4.93-14.45,9.24-29.16,14.92-43.31c15.54-38.7,39.65-71.49,70.67-99.23
			c6.44-5.76,12.95-11.56,20.06-16.43c19.94-13.65,42.19-19.4,66.3-17.55c18.02,1.38,31.28,10.51,40.4,25.79
			c7.08,11.87,11.61,24.8,13.44,38.45c2.3,17.15,4.35,34.37,5.65,51.62c1.94,25.56,2.24,51.28,4.85,76.76
			c3.3,32.1,8.02,64.07,12.55,96.03c2.38,16.81,5.69,33.48,8.56,50.22c2.11,12.3-0.38,16.27-12.35,19.72
			c-2.24,0.64-4.52,1.22-6.82,1.53c-8.8,1.19-13.56-1.11-15.95-9.75c-3.46-12.49-6.47-25.18-8.46-37.98
			c-6.49-41.83-9.69-84.01-12.6-126.22c-2.38-34.55-5.15-69.07-8.21-103.57c-1.21-13.61-3.89-27.08-9.61-39.65
			c-2.33-5.12-5.02-10.19-8.3-14.74c-9.85-13.66-22.71-17.29-38.7-11.16c-13.89,5.33-25.8,13.84-36.63,23.86
			c-48.77,45.16-77.35,101.03-88.09,166.35c-4.18,25.38-5.43,50.98-5.67,76.64c-0.17,17.32,0.14,34.66-0.51,51.96
			c-0.28,7.54-1.66,15.24-3.89,22.45c-2.51,8.11-9.2,11.89-17.67,12.3c-8.48,0.41-11.52-2.02-12.26-10.67
			c-0.91-10.61-1.33-21.27-2.1-31.9c-2.39-32.87-4.88-65.74-7.28-98.62c-1.57-21.59-2.95-43.19-4.61-64.76
			c-2.3-29.88-4.73-59.75-7.21-89.61c-1.49-17.92-3.31-35.82-4.71-53.74c-0.95-12.05,0.49-13.82,11.88-16.9
			c1.93-0.52,3.88-0.99,5.84-1.37c9.43-1.79,13.27,0.07,15.24,9.49c2.93,14,4.86,28.2,7.22,42.31
			c6.49,38.82,8.59,78.08,11.96,117.22c0.13,1.55,0.47,3.08,0.71,4.62C453.88,1033.48,454.34,1033.41,454.79,1033.34z"/>
		<path d="M1285.43,932.55c8.88-8.17,15.96-15.14,23.52-21.54c12.69-10.75,24.85-22.45,38.73-31.43
			c31.17-20.17,65.3-27.78,102.16-18.94c1.3,0.31,2.71,0.43,3.84,1.06c2.77,1.54,7.64,3.35,7.62,5.02
			c-0.03,3.08-2.31,6.92-4.84,8.97c-2.59,2.1-6.56,3.1-10.02,3.4c-5.62,0.49-11.33,0.2-16.98-0.09
			c-29.74-1.56-55.75,8.41-78.92,26.2c-15.61,11.98-29.75,25.67-42.29,40.92c-12.85,15.63-18.58,32.88-16.42,53.65
			c5.52,53,9.98,106.12,14.43,159.23c1.5,17.9,2.25,35.91,2.35,53.88c0.09,16.69-5.35,21.22-22,20.7
			c-11.29-0.36-16.27-4.48-17.71-16.09c-1.31-10.56-1.88-21.23-2.52-31.87c-2.21-36.57-3.63-73.2-6.64-109.7
			c-3.58-43.47-8.24-86.86-12.94-130.22c-2.83-26.15-6.63-52.19-10.02-78.28c-1.65-12.7,0.09-14.68,12.97-14.33
			c2.66,0.07,5.33,0.29,7.95,0.74c11.07,1.89,14.86,5.37,16.92,16.61c2.89,15.73,5.36,31.53,8.04,47.29
			C1283.38,921.95,1284.23,926.16,1285.43,932.55z"/>
		<path d="M1545.35,887.37c0.5,44.96,0.74,89.93,1.58,134.89c0.62,33.34,4.55,66.43,8.82,99.47c3.8,29.4,7.78,58.77,11.56,88.17
			c1.64,12.76-1.55,18.39-11.39,20.88c-11.66,2.95-20.68-1.45-24.45-13c-2.47-7.55-4.25-15.48-5.09-23.38
			c-3.69-34.42-7.34-68.86-10.2-103.36c-2.94-35.5-4.98-71.08-7.32-106.63c-0.83-12.63-1.6-25.26-2.09-37.9
			c-0.89-23.29-1.56-46.6-2.31-69.89c-0.04-1.33,0.05-2.67,0-4c-0.87-20.36,12.93-26.01,28.58-22.64
			c9.04,1.95,11.61,4.86,11.94,14.42c0.26,7.65,0.05,15.32,0.05,22.99C1545.13,887.37,1545.24,887.37,1545.35,887.37z"/>
		<path d="M1502.34,790.6c8.17-1.03,15.99,0.02,23.48,2.92c7,2.72,9.53,7.51,8.56,15.02c-0.21,1.64-0.67,3.26-1.16,4.84
			c-2.98,9.72-7.53,13-16.62,12.05c-9.89-1.03-15.43-6.24-15.84-15.95C1500.51,803.32,1499.33,796.91,1502.34,790.6z"/>
	</g>
</g>
<g>
	<path class="st0" d="M662.74,1342.96h16.28v56.98h105.82v-56.98h16.28v134.5h-16.28v-63.08H679.02v63.08h-16.28V1342.96z"/>
	<path class="st0" d="M824.06,1411.04c0-11.22,1.97-21.24,5.92-30.06c3.95-8.82,9.4-16.28,16.37-22.38
		c6.96-6.11,15.26-10.79,24.88-14.06c9.62-3.27,20.17-4.9,31.64-4.9c11.47,0,22.01,1.64,31.63,4.9c9.62,3.27,17.91,7.96,24.88,14.06
		c6.96,6.1,12.42,13.57,16.37,22.38c3.95,8.82,5.92,18.84,5.92,30.06c0,11.96-2.28,22.32-6.84,31.08
		c-4.56,8.76-10.54,16-17.95,21.74c-7.4,5.74-15.82,9.99-25.25,12.77c-9.44,2.77-19.03,4.16-28.77,4.16
		c-9.74,0-19.33-1.39-28.77-4.16c-9.44-2.78-17.85-7.03-25.25-12.77c-7.4-5.73-13.38-12.98-17.94-21.74
		C826.34,1433.36,824.06,1423,824.06,1411.04z M840.71,1408.08c0,10.24,1.69,19.03,5.09,26.36c3.39,7.34,7.92,13.38,13.6,18.13
		c5.67,4.75,12.27,8.23,19.79,10.45c7.52,2.22,15.42,3.33,23.68,3.33c8.14,0,15.97-1.11,23.49-3.33c7.52-2.22,14.15-5.7,19.89-10.45
		c5.74-4.75,10.3-10.79,13.69-18.13c3.39-7.34,5.09-16.12,5.09-26.36c0-7.52-1.42-14.58-4.26-21.18
		c-2.84-6.6-6.91-12.39-12.21-17.39s-11.81-8.94-19.52-11.84c-7.71-2.9-16.44-4.35-26.18-4.35c-9.74,0-18.47,1.45-26.18,4.35
		c-7.71,2.9-14.22,6.84-19.52,11.84c-5.3,5-9.38,10.79-12.21,17.39C842.13,1393.49,840.71,1400.56,840.71,1408.08z"/>
	<path class="st0" d="M1048.47,1357.39h-64.94v-14.43h146.15v14.43h-64.94v120.07h-16.28V1357.39z"/>
	<path class="st0" d="M1147.44,1342.96h119.88v14.43h-103.6v42.92h86.58v14.43h-86.58v48.29h105.82v14.43h-122.1V1342.96z"/>
	<path class="st0" d="M1287.67,1342.96h16.28v120.07h106.19v14.43h-122.47V1342.96z"/>
	<path class="st0" d="M1429.19,1438.97c1.97,2.59,4.35,5.49,7.12,8.7c2.78,3.21,6.48,6.2,11.1,8.97s10.39,5.09,17.3,6.94
		c6.91,1.85,15.42,2.78,25.53,2.78c5.18,0,10.64-0.43,16.37-1.29c5.73-0.86,11.04-2.31,15.91-4.35c4.87-2.04,8.88-4.78,12.03-8.23
		c3.14-3.45,4.72-7.77,4.72-12.95c0-5.06-1.67-9.07-5-12.03s-7.77-5.24-13.32-6.84c-5.55-1.6-11.84-2.78-18.87-3.51
		c-7.03-0.74-14.18-1.48-21.46-2.22c-7.28-0.74-14.43-1.69-21.46-2.87c-7.03-1.17-13.32-2.99-18.87-5.46
		c-5.55-2.46-9.99-5.83-13.32-10.08s-5-9.77-5-16.56c0-7.15,1.57-13.29,4.72-18.41c3.15-5.12,7.52-9.28,13.14-12.49
		c5.61-3.21,12.27-5.58,19.98-7.12c7.71-1.54,16.12-2.31,25.25-2.31c8.88,0,16.9,0.83,24.05,2.5c7.15,1.67,13.5,3.82,19.05,6.47
		c5.55,2.65,10.27,5.61,14.15,8.88c3.89,3.27,7,6.51,9.34,9.71l-11.84,9.62c-1.36-1.6-3.3-3.73-5.83-6.38
		c-2.53-2.65-5.92-5.24-10.18-7.77c-4.25-2.53-9.56-4.72-15.91-6.57c-6.35-1.85-14.09-2.77-23.22-2.77
		c-6.78,0-12.98,0.46-18.59,1.39c-5.61,0.92-10.45,2.34-14.52,4.25c-4.07,1.91-7.25,4.41-9.53,7.49c-2.28,3.08-3.42,6.72-3.42,10.92
		c0,5.06,1.67,9,5,11.84c3.33,2.84,7.77,5.03,13.32,6.57c5.55,1.54,11.84,2.62,18.87,3.24c7.03,0.62,14.18,1.3,21.46,2.04
		c7.28,0.74,14.43,1.76,21.46,3.05s13.32,3.3,18.87,6.01c5.55,2.71,9.99,6.41,13.32,11.1c3.33,4.69,5,10.79,5,18.32
		c0,5.67-1.39,11.01-4.16,16c-2.78,5-6.94,9.38-12.49,13.14c-5.55,3.76-12.55,6.72-21,8.88c-8.45,2.16-18.41,3.24-29.88,3.24
		c-10.98,0-20.35-1.02-28.12-3.05c-7.77-2.04-14.43-4.59-19.98-7.68c-5.55-3.08-10.17-6.44-13.88-10.08
		c-3.7-3.64-6.97-7.06-9.8-10.27L1429.19,1438.97z"/>
</g>
<g>
	<path class="st0" d="M1823.76,1342.96h66.42c10.48,0,20.1,1.39,28.86,4.16c8.75,2.77,16.34,6.91,22.75,12.39
		c6.41,5.49,11.41,12.37,14.98,20.63c3.58,8.26,5.37,17.88,5.37,28.86c0,13.69-2.34,24.95-7.03,33.76
		c-4.69,8.82-10.76,15.82-18.22,21c-7.46,5.18-15.76,8.76-24.88,10.73c-9.13,1.97-18.13,2.96-27.01,2.96h-61.24V1342.96z
		 M1840.04,1463.03h47.54c2.22,0,5.18-0.12,8.88-0.37c3.7-0.25,7.71-0.92,12.03-2.04c4.32-1.11,8.66-2.8,13.04-5.09
		c4.38-2.28,8.35-5.43,11.93-9.43c3.58-4.01,6.47-9.07,8.7-15.17c2.22-6.11,3.33-13.6,3.33-22.48c0-9.87-1.6-18.07-4.81-24.61
		c-3.21-6.54-7.4-11.78-12.58-15.72c-5.18-3.95-11.1-6.72-17.76-8.33c-6.66-1.6-13.38-2.41-20.17-2.41h-50.13V1463.03z"/>
	<path class="st0" d="M2123.46,1422.14c0,12.21-2.13,22.11-6.38,29.69c-4.26,7.58-9.75,13.54-16.47,17.85
		c-6.72,4.32-14.18,7.25-22.38,8.79c-8.2,1.54-16.19,2.31-23.96,2.31c-7.77,0-15.76-0.77-23.96-2.31
		c-8.2-1.54-15.66-4.47-22.38-8.79c-6.72-4.32-12.21-10.27-16.46-17.85s-6.38-17.48-6.38-29.69v-79.18h16.28v79.18
		c0,15.42,4.69,26.76,14.06,34.04c9.37,7.28,22.32,10.92,38.85,10.92c16.53,0,29.48-3.64,38.85-10.92
		c9.37-7.28,14.06-18.62,14.06-34.04v-79.18h16.28V1422.14z"/>
	<path class="st0" d="M2155.46,1342.96h77.7c5.3,0,11.07,0.4,17.3,1.2c6.23,0.8,11.96,2.53,17.21,5.18
		c5.24,2.65,9.62,6.45,13.13,11.38c3.52,4.93,5.27,11.53,5.27,19.79c0,7.03-1.45,12.89-4.35,17.58c-2.9,4.69-6.48,8.42-10.73,11.19
		c-4.25,2.78-8.85,4.81-13.78,6.11c-4.93,1.29-9.44,2.01-13.5,2.13l44.4,59.94h-20.17l-43.29-59.57h-52.91v59.57h-16.28V1342.96z
		 M2171.74,1403.46h57.72c5.92,0,11.38-0.28,16.37-0.83c5-0.56,9.31-1.67,12.95-3.33c3.64-1.67,6.5-4.01,8.6-7.03
		c2.1-3.02,3.14-7,3.14-11.93c0-4.93-1.05-8.88-3.14-11.84c-2.1-2.96-4.97-5.27-8.6-6.94c-3.64-1.67-7.96-2.78-12.95-3.33
		s-10.45-0.83-16.37-0.83h-57.72V1403.46z"/>
	<path class="st0" d="M2316.78,1342.96h16.28v56.98h105.82v-56.98h16.28v134.5h-16.28v-63.08h-105.82v63.08h-16.28V1342.96z"/>
	<path class="st0" d="M2541.92,1342.96h19.98l69,134.5h-18.32l-17.39-34.96h-86.77l-17.57,34.96h-18.13L2541.92,1342.96z
		 M2587.99,1428.07l-36.08-72.34l-36.08,72.34H2587.99z"/>
	<path class="st0" d="M2647.93,1342.96h25.16l49.76,113.22l49.76-113.22h25.16v134.5h-14.98v-120.07h-0.37l-52.54,120.07h-13.69
		l-52.91-120.07h-0.37v120.07h-14.98V1342.96z"/>
</g>
</svg>
